<svg width="30" height="31" viewBox="0 0 30 31" fill="none" xmlns="http://www.w3.org/2000/svg">
<path d="M29.7783 4.43319C29.7783 4.36226 29.7074 4.29133 29.6719 4.29133C29.601 4.29133 29.5301 4.29133 29.4946 4.3268L26.3027 7.44772L23.0045 4.14947L26.1963 0.957613C26.2673 0.886683 26.2673 0.780287 26.1963 0.709357C26.1609 0.673892 26.1609 0.673892 26.1254 0.673892C23.7138 0.141916 21.2312 0.851217 19.4225 2.51808C17.7202 4.2204 18.1458 6.20645 18.4295 7.51865C18.465 7.69598 18.5004 7.90877 18.5359 8.05063C17.401 9.25644 8.81845 17.8745 7.54171 19.0803C7.39985 19.0448 7.25799 19.0093 7.08067 18.9739C5.76846 18.6547 3.85334 18.1936 2.08009 19.9314C0.413229 21.7047 -0.296073 24.1872 0.235904 26.5634C0.271369 26.6698 0.342299 26.7053 0.448694 26.7053C0.484159 26.7053 0.519624 26.6698 0.519624 26.6698L3.71148 23.5489L7.00974 26.8471L3.81788 30.039C3.74695 30.1099 3.74695 30.2163 3.81788 30.2872C3.85334 30.3227 3.85334 30.3227 3.88881 30.3227C4.38532 30.4291 4.91729 30.5 5.44927 30.5C7.36439 30.5 9.20857 29.7907 10.5917 28.4431C12.294 26.7407 11.8685 24.7547 11.5847 23.4425C11.5493 23.2652 11.5138 23.0524 11.4783 22.9105C12.6132 21.7047 21.1958 13.0867 22.4725 11.8809L22.9336 11.9873C24.2103 12.3064 26.1963 12.803 27.9341 11.0652C29.601 9.29191 30.2748 6.80935 29.7783 4.43319Z" fill="white"/>
</svg>
