<svg width="37" height="37" viewBox="0 0 37 37" fill="none" xmlns="http://www.w3.org/2000/svg">
<circle cx="18.5" cy="18.5" r="18.5" fill="#E92929"/>
<path d="M19 11.125C15.4332 11.125 12.5312 13.9988 12.5312 17.5313C12.5312 20.0997 15.7668 24.1216 17.6961 26.2911C18.0263 26.6618 18.5016 26.875 19 26.875C19.4984 26.875 19.9737 26.6618 20.3039 26.2911C22.2327 24.1227 25.4688 20.1003 25.4688 17.5313C25.4688 13.9988 22.5668 11.125 19 11.125ZM19 14.7542C20.5508 14.7542 21.8125 16.0002 21.8125 17.5313C21.8125 19.0624 20.5508 20.3084 19 20.3084C17.4492 20.3084 16.1875 19.0624 16.1875 17.5313C16.1875 16.0002 17.4492 14.7542 19 14.7542Z" fill="white"/>
</svg>
