<svg width="28" height="27" viewBox="0 0 28 27" fill="none" xmlns="http://www.w3.org/2000/svg">
<path fill-rule="evenodd" clip-rule="evenodd" d="M0.875 13.5C0.875 6.25126 6.75127 0.375 14 0.375C21.2488 0.375 27.125 6.25126 27.125 13.5C27.125 20.7488 21.2488 26.625 14 26.625C11.5273 26.625 9.212 25.9403 7.23605 24.75H1.8125C1.46676 24.75 1.14908 24.5597 0.985934 24.2549C0.822791 23.95 0.840669 23.5802 1.03245 23.2925L2.89488 20.4988C1.6155 18.4727 0.875 16.0717 0.875 13.5ZM8.375 11.625C7.33947 11.625 6.5 12.4644 6.5 13.5C6.5 14.5356 7.33947 15.375 8.375 15.375C9.41056 15.375 10.25 14.5356 10.25 13.5C10.25 12.4644 9.41056 11.625 8.375 11.625ZM12.125 13.5C12.125 12.4644 12.9644 11.625 14 11.625C15.0356 11.625 15.875 12.4644 15.875 13.5C15.875 14.5356 15.0356 15.375 14 15.375C12.9644 15.375 12.125 14.5356 12.125 13.5ZM19.625 11.625C18.5894 11.625 17.75 12.4644 17.75 13.5C17.75 14.5356 18.5894 15.375 19.625 15.375C20.6606 15.375 21.5 14.5356 21.5 13.5C21.5 12.4644 20.6606 11.625 19.625 11.625Z" fill="white"/>
</svg>
