<svg width="37" height="37" viewBox="0 0 37 37" fill="none" xmlns="http://www.w3.org/2000/svg">
<circle cx="18.5" cy="18.5" r="18.5" fill="#E92929"/>
<path fill-rule="evenodd" clip-rule="evenodd" d="M25.7071 25.0737C25.6009 25.1796 25.4727 25.315 25.3369 25.4582C24.9979 25.818 24.5744 26.2653 24.309 26.4467C22.9125 27.401 21.0442 26.9444 19.7227 26.3937C17.9794 25.6673 16.0814 24.3283 14.3772 22.6238C12.6714 20.9192 11.3326 19.0205 10.6062 17.2781C10.0563 15.9562 9.59869 14.0874 10.5531 12.6905C10.7344 12.4249 11.1826 12.002 11.5419 11.6624C11.6857 11.5269 11.82 11.399 11.9263 11.2931C12.1149 11.1054 12.3702 11 12.6363 11C12.9023 11 13.1576 11.1054 13.3462 11.2931L15.9157 13.862C16.1033 14.0506 16.2086 14.3058 16.2086 14.5718C16.2086 14.8379 16.1033 15.0931 15.9157 15.2817L15.2158 15.9803C14.982 16.2124 14.8294 16.5137 14.7807 16.8395C14.732 17.1653 14.7898 17.4981 14.9455 17.7884C15.9083 19.6056 17.3946 21.0917 19.2119 22.0542C19.5021 22.2099 19.8348 22.2676 20.1605 22.2188C20.4861 22.17 20.7874 22.0174 21.0192 21.7835L21.7175 21.0849C21.9061 20.8972 22.1614 20.7918 22.4275 20.7918C22.6936 20.7918 22.9488 20.8972 23.1374 21.0849L25.7071 23.6542C25.8947 23.8428 26 24.098 26 24.3639C26 24.6299 25.8947 24.8851 25.7071 25.0737Z" fill="white"/>
</svg>
