<svg width="40" height="40" viewBox="0 0 40 40" fill="none" xmlns="http://www.w3.org/2000/svg">
<path d="M39.7009 4.998C39.5557 4.51667 38.9488 4.36526 38.5948 4.71933L36.283 7.0312H32.9688V3.71698L35.2809 1.40401C35.6365 1.04808 35.4821 0.443311 35.0046 0.298076C34.3502 0.099248 33.6711 0.0144043 32.9756 0.0144043C31.0907 0.0144043 29.3238 0.730029 27.9974 2.05987C26.3723 3.68378 25.6445 6.00581 26.0473 8.27284L26.1549 8.87362L8.8736 26.1548C8.17556 26.03 7.75517 25.9385 7.04024 25.9385C5.18399 25.9385 3.36782 26.6892 2.0586 27.9973C0.210947 29.8462 -0.440225 32.5534 0.297744 35.0019C0.443212 35.4842 1.04899 35.6353 1.40384 35.2806L3.71587 32.9687H7.04688V36.2841L4.71876 38.5965C4.36321 38.9517 4.51657 39.5575 4.99556 39.7028C5.64845 39.9003 6.32649 40 7.02087 40C11.3976 40 14.7209 36.0513 13.9526 31.727L13.845 31.1262L31.1251 13.845C31.8115 13.9677 32.2497 14.0621 32.9584 14.0602C34.8181 14.0602 36.6331 13.3106 37.9401 12.0025C39.789 10.1546 40.4393 7.44808 39.7009 4.998Z" fill="#E92929"/>
</svg>
