<svg width="40" height="40" viewBox="0 0 40 40" fill="none" xmlns="http://www.w3.org/2000/svg">
<g clip-path="url(#clip0_11_2808)">
<path d="M39.2967 15.5094V21.4408H36.3208C35.9293 23.4046 35.1566 25.2308 34.0832 26.8394L36.1886 28.9448L31.9944 33.1388L29.889 31.0335C28.2806 32.107 26.4542 32.8793 24.4904 33.2709V36.247H18.559V33.2709C16.8372 32.9277 15.2212 32.2914 13.7649 31.4163C14.1247 30.9529 14.1656 30.3209 13.8877 29.8191L14.5653 29.1414C16.6297 30.4913 19.0373 31.2096 21.5247 31.2096C28.5574 31.2096 34.2592 25.5077 34.2592 18.4751C34.2592 11.4425 28.5573 5.74055 21.5247 5.74055C14.4921 5.74055 8.79021 11.4424 8.79021 18.4751C8.79021 20.9626 9.50865 23.3702 10.8586 25.4347L10.181 26.1123C9.6792 25.8343 9.04717 25.8752 8.58365 26.2351C7.70842 24.7787 7.0724 23.1626 6.72896 21.4408H3.75287V15.5094H6.72896C7.12045 13.5455 7.89303 11.7194 8.96639 10.1109L6.861 8.00547L11.0552 3.81141L13.1604 5.91664C14.7688 4.84313 16.5952 4.0707 18.559 3.67906V0.703125H24.4904V3.67906C26.4543 4.07047 28.2805 4.84313 29.8891 5.91656L31.9944 3.81125L36.1885 8.00547L34.0833 10.1107C35.1569 11.7191 35.9291 13.5456 36.3208 15.5094H39.2967ZM1.41053 35.1597C0.467324 36.1029 0.467324 37.6463 1.41053 38.5894C2.35381 39.5327 3.89701 39.5327 4.84021 38.5894L10.2545 33.1752L6.82482 29.7454L1.41053 35.1597ZM12.7597 30.3791C12.8397 30.4591 12.8397 30.5899 12.7597 30.67L11.1383 32.2913L7.70865 28.8616L9.32998 27.2402C9.41006 27.1602 9.54092 27.1602 9.621 27.2402L10.2209 27.8402L12.4924 25.5686C10.9565 23.6156 10.0404 21.1523 10.0404 18.475C10.0404 12.1323 15.1822 6.99047 21.525 6.99047C27.8677 6.99047 33.0095 12.1323 33.0095 18.475C33.0095 24.8178 27.8677 29.9595 21.525 29.9595C18.8477 29.9595 16.3845 29.0434 14.4315 27.5077L12.16 29.7792L12.7597 30.3791ZM13.0598 18.4751C13.0598 23.1502 16.8497 26.94 21.5247 26.94C26.1997 26.94 29.9896 23.1502 29.9896 18.4751C29.9896 13.8001 26.1997 10.0102 21.5247 10.0102C16.8497 10.0102 13.0598 13.8 13.0598 18.4751ZM19.3218 21.9709C19.8851 22.5191 20.7861 22.513 21.3416 21.9542L26.2287 17.0213C26.788 16.4589 26.7854 15.5495 26.223 14.9901C25.6606 14.4307 24.7512 14.4333 24.1918 14.9957L20.3057 18.9183L18.8408 17.4904C18.2722 16.9373 17.3628 16.9498 16.8096 17.5185C16.2564 18.0872 16.269 18.9966 16.8377 19.5498L19.3218 21.9709Z" fill="#E92929"/>
</g>
<defs>
<clipPath id="clip0_11_2808">
<rect width="40" height="40" fill="white"/>
</clipPath>
</defs>
</svg>
