<svg width="40" height="38" viewBox="0 0 40 38" fill="none" xmlns="http://www.w3.org/2000/svg">
<path d="M24.3125 26.4687C24.3125 26.3299 24.2638 26.1909 24.1667 26.0521C23.3888 25.1212 22.764 24.3226 22.2915 23.6564C22.5832 23.087 22.8055 22.5591 22.9578 22.0735L26.1871 21.5735C26.3125 21.5593 26.4236 21.4866 26.5207 21.355C26.6179 21.2225 26.666 21.0873 26.666 20.9485V17.0941C26.666 16.9415 26.6179 16.8059 26.5207 16.6881C26.4236 16.5702 26.3055 16.497 26.1666 16.4697L22.9997 15.9905C22.8466 15.5181 22.6107 14.9484 22.2913 14.282C22.4994 13.9763 22.8123 13.5595 23.229 13.032C23.6456 12.5041 23.9377 12.1293 24.104 11.907C24.2014 11.7682 24.2498 11.6361 24.2498 11.5112C24.2498 11.1362 23.2497 10.0251 21.2503 8.17775C21.1115 8.06683 20.9656 8.0113 20.8123 8.0113C20.646 8.0113 20.5071 8.05939 20.3955 8.15702L17.9371 10.0112C17.3678 9.7196 16.847 9.50441 16.3747 9.36511L15.8955 6.17779C15.8819 6.03893 15.8123 5.91722 15.6873 5.81316C15.5623 5.70903 15.4234 5.65686 15.2705 5.65686H11.3958C11.0764 5.65686 10.868 5.82352 10.7709 6.15678C10.604 6.79577 10.4445 7.86544 10.2917 9.36511C9.69455 9.5595 9.15983 9.78177 8.68764 10.0318L6.29189 8.15695C6.15303 8.05954 6.00724 8.01123 5.85437 8.01123C5.59014 8.01123 5.04163 8.42088 4.20839 9.24048C3.375 10.0598 2.80525 10.6778 2.49995 11.0946C2.4026 11.2058 2.35422 11.3447 2.35422 11.5114C2.35422 11.6362 2.40253 11.7751 2.49995 11.9279C3.27758 12.8587 3.9025 13.6573 4.37483 14.3236C4.08324 14.8934 3.86112 15.4209 3.70847 15.9069L0.479193 16.4066C0.354049 16.4205 0.243062 16.4933 0.145721 16.625C0.0485979 16.7572 0 16.8925 0 17.0312V20.8854C0 21.0383 0.0485979 21.1736 0.145721 21.2914C0.243062 21.4098 0.360982 21.4757 0.500135 21.4895L3.66673 21.9895C3.8334 22.517 4.07668 23.0867 4.39607 23.6978C4.1738 24.0036 3.84755 24.4274 3.41696 24.9688C2.98607 25.5107 2.70149 25.8788 2.5627 26.073C2.4655 26.2119 2.41683 26.3442 2.41683 26.4686C2.41683 26.8442 3.41696 27.9549 5.41691 29.8023C5.55577 29.9132 5.70142 29.9684 5.85444 29.9684C6.03497 29.9684 6.17383 29.9202 6.27095 29.8228L8.72923 27.9689C9.29847 28.2606 9.81933 28.4755 10.2917 28.6145L10.7709 31.8021C10.7846 31.9409 10.8543 32.0627 10.9791 32.1666C11.1041 32.2708 11.243 32.3227 11.3958 32.3227H15.2705C15.5901 32.3227 15.7983 32.1562 15.8956 31.8228C16.0623 31.1698 16.2218 30.0936 16.3748 28.5935C16.9302 28.4275 17.4648 28.2115 17.9788 27.948L20.3746 29.8228C20.5135 29.9202 20.6593 29.9684 20.8122 29.9684C21.0761 29.9684 21.6215 29.5553 22.4478 28.7285C23.2738 27.9027 23.847 27.2807 24.1666 26.8641C24.2638 26.7672 24.3125 26.6355 24.3125 26.4687ZM17.1039 22.7609C16.0625 23.8022 14.8054 24.323 13.3333 24.323C11.8609 24.323 10.6038 23.8021 9.5624 22.7609C8.52083 21.7191 7.99997 20.462 7.99997 18.9898C7.99997 17.5177 8.52083 16.2607 9.5624 15.2191C10.6038 14.1775 11.8609 13.6568 13.3333 13.6568C14.8054 13.6568 16.0625 14.1774 17.1039 15.2191C18.1457 16.2607 18.6664 17.5177 18.6664 18.9898C18.6664 20.462 18.1458 21.7191 17.1039 22.7609Z" fill="#E92929"/>
<path d="M36.8957 27.5525C36.7154 27.1499 36.5068 26.7888 36.2709 26.4691C36.9794 24.8994 37.3332 23.941 37.3332 23.594C37.3332 23.539 37.306 23.4901 37.25 23.4484C35.583 22.4763 34.7221 21.9901 34.6665 21.9901L34.5417 22.032C33.9723 22.6017 33.3331 23.3792 32.6251 24.3654C32.3474 24.3377 32.1394 24.3235 32.0005 24.3235C31.8612 24.3235 31.6532 24.3377 31.3752 24.3654C31.1815 24.0735 30.8199 23.6045 30.2922 22.959C29.7646 22.3135 29.445 21.9902 29.3338 21.9902C29.3061 21.9902 29.0978 22.1012 28.7088 22.324C28.32 22.5463 27.9103 22.782 27.4797 23.0325C27.0487 23.283 26.8062 23.4213 26.7505 23.4492C26.6946 23.4907 26.6671 23.5396 26.6671 23.5946C26.6671 23.9422 27.0212 24.8999 27.7294 26.4697C27.4937 26.7894 27.2851 27.1505 27.1047 27.5527C25.035 27.7608 24.0002 27.9763 24.0002 28.1985V31.115C24.0002 31.3373 25.035 31.5525 27.1047 31.7608C27.271 32.1359 27.4795 32.497 27.7294 32.8436C27.0212 34.4133 26.6671 35.3717 26.6671 35.7187C26.6671 35.7742 26.6946 35.8231 26.7505 35.8646C28.4446 36.8507 29.3061 37.3437 29.3338 37.3437C29.4449 37.3437 29.7646 37.0173 30.2922 36.3645C30.8199 35.7116 31.181 35.2398 31.3752 34.9482C31.653 34.9754 31.8612 34.9893 32.0005 34.9893C32.1393 34.9893 32.3474 34.9754 32.6251 34.9482C32.8191 35.2398 33.1804 35.7116 33.7081 36.3645C34.2357 37.0173 34.5551 37.3437 34.6665 37.3437C34.6943 37.3437 35.5558 36.8505 37.25 35.8646C37.306 35.8231 37.3332 35.7745 37.3332 35.7187C37.3332 35.3716 36.9789 34.4132 36.2709 32.8436C36.5209 32.497 36.7291 32.1359 36.8957 31.7608C38.9653 31.5525 40.0001 31.3373 40.0001 31.115V28.1985C40.0001 27.9763 38.9653 27.7607 36.8957 27.5525ZM33.8851 31.5419C33.365 32.0628 32.7362 32.3237 32 32.3237C31.2636 32.3237 30.6351 32.0628 30.1147 31.5419C29.5937 31.0209 29.333 30.3927 29.333 29.6565C29.333 28.9346 29.5972 28.3091 30.1251 27.7817C30.6527 27.2541 31.2778 26.9901 31.9999 26.9901C32.7219 26.9901 33.3474 27.2538 33.8752 27.7817C34.4027 28.3092 34.6669 28.9346 34.6669 29.6565C34.6665 30.3927 34.4062 31.0209 33.8851 31.5419Z" fill="#E92929"/>
<path d="M36.8957 6.21903C36.7154 5.81624 36.5068 5.45518 36.2709 5.1355C36.9794 3.56629 37.3332 2.6079 37.3332 2.26071C37.3332 2.2054 37.306 2.15658 37.25 2.11484C35.583 1.14267 34.7221 0.656616 34.6665 0.656616L34.5417 0.698209C33.9723 1.26796 33.3331 2.04552 32.6251 3.03156C32.3474 3.00398 32.1394 2.98997 32.0005 2.98997C31.8612 2.98997 31.6532 3.00398 31.3752 3.03156C31.1815 2.7399 30.8199 2.27122 30.2922 1.62544C29.7646 0.979508 29.445 0.656689 29.3338 0.656689C29.3061 0.656689 29.0978 0.767676 28.7088 0.990088C28.32 1.21257 27.9103 1.44856 27.4797 1.69862C27.0487 1.94877 26.8062 2.08755 26.7505 2.11514C26.6946 2.1568 26.6671 2.2054 26.6671 2.261C26.6671 2.60819 27.0212 3.56665 27.7294 5.13594C27.4937 5.45555 27.2851 5.81653 27.1047 6.21932C25.035 6.42751 24.0002 6.64269 24.0002 6.86496V9.78164C24.0002 10.0038 25.035 10.2192 27.1047 10.4273C27.271 10.8021 27.4795 11.1634 27.7294 11.5107C27.0212 13.0802 26.6671 14.0383 26.6671 14.3856C26.6671 14.4408 26.6946 14.4896 26.7505 14.5313C28.4446 15.5174 29.3061 16.0104 29.3338 16.0104C29.4449 16.0104 29.7646 15.6842 30.2922 15.0313C30.8199 14.3784 31.181 13.9065 31.3752 13.6147C31.653 13.6423 31.8612 13.6563 32.0005 13.6563C32.1393 13.6563 32.3474 13.6423 32.6251 13.6147C32.8191 13.9065 33.1804 14.3784 33.7081 15.0313C34.2357 15.6842 34.5551 16.0104 34.6665 16.0104C34.6943 16.0104 35.5558 15.5174 37.25 14.5313C37.306 14.4896 37.3332 14.4411 37.3332 14.3856C37.3332 14.0383 36.9789 13.0802 36.2709 11.5107C36.5209 11.1634 36.7291 10.8023 36.8957 10.4273C38.9653 10.2191 40.0001 10.0038 40.0001 9.78164V6.86496C40.0001 6.64269 38.9653 6.42743 36.8957 6.21903ZM33.8851 10.2086C33.365 10.7295 32.7362 10.9899 32 10.9899C31.2636 10.9899 30.6351 10.7295 30.1147 10.2086C29.5937 9.68794 29.333 9.05938 29.333 8.32326C29.333 7.60108 29.5972 6.97595 30.1251 6.44816C30.6527 5.92037 31.2778 5.65643 31.9999 5.65643C32.7219 5.65643 33.3474 5.92066 33.8752 6.44816C34.4027 6.97587 34.6669 7.60108 34.6669 8.32326C34.6665 9.05938 34.4062 9.68794 33.8851 10.2086Z" fill="#E92929"/>
</svg>
