<svg width="40" height="40" viewBox="0 0 40 40" fill="none" xmlns="http://www.w3.org/2000/svg">
<path d="M4.70351 26.0192L0.0442171 30.6785C-0.0341422 30.7531 -0.00484536 30.8882 0.104373 30.9206L5.71594 32.6253C6.51203 32.8674 7.13234 33.4878 7.37445 34.2838L9.07906 39.8953C9.1114 40.0046 9.24656 40.0339 9.32125 39.9555L15.5555 33.7213C10.9429 32.5755 7.13484 29.6999 4.70351 26.0192Z" fill="#E92929"/>
<path d="M39.9557 30.6785L35.2964 26.0192C32.8825 29.6735 29.0862 32.5682 24.4443 33.7214L30.6786 39.9556C30.7532 40.0339 30.8884 40.0046 30.9207 39.8954L32.6254 34.2839C32.8675 33.4878 33.4879 32.8674 34.2839 32.6253L39.8955 30.9207C40.005 30.8881 40.0339 30.7529 39.9557 30.6785Z" fill="#E92929"/>
<path d="M35.9582 15.9584C35.9582 7.15946 28.7997 0.000244141 20 0.000244141C11.2002 0.000244141 4.04175 7.15946 4.04175 15.9584C4.04175 23.9143 9.89948 30.5452 17.5477 31.7292C27.2357 33.2362 35.9582 25.6954 35.9582 15.9584ZM7.56042 19.8474C4.92862 11.4333 11.2641 2.92751 20 2.92751C29.7588 2.92751 36.209 13.4157 31.452 22.1747C25.9603 32.249 11.0168 30.8416 7.56042 19.8474Z" fill="#E92929"/>
<path d="M20.0001 5.27124C14.1072 5.27124 9.31201 10.0657 9.31201 15.9585C9.31201 24.6282 19.1415 29.6841 26.1804 24.6731C27.6885 23.6026 28.9166 22.1392 29.7069 20.4294C32.9905 13.3602 27.7559 5.27124 20.0001 5.27124ZM25.3944 14.4594C25.261 14.5584 18.7678 19.3777 18.7305 19.4054C18.2615 19.7549 17.5944 19.708 17.1774 19.2663C14.1948 16.0877 14.4334 16.3416 14.3619 16.2664C13.8607 15.7327 13.9653 14.8695 14.5923 14.4727C14.5931 14.4719 14.5939 14.4712 14.5947 14.4712C15.0603 14.179 15.6814 14.2469 16.0712 14.6626C16.7019 15.3348 16.2774 14.8823 18.1719 16.9008C18.3762 16.7485 20.7791 14.9658 24.0851 12.5126C24.6046 12.1266 25.339 12.2352 25.724 12.7548C26.077 13.2285 26.0758 13.9545 25.3944 14.4594Z" fill="#E92929"/>
</svg>
