<svg width="50" height="50" viewBox="0 0 50 50" fill="none" xmlns="http://www.w3.org/2000/svg">
<path opacity="0.5" d="M25 0L46.6506 12.5V37.5L25 50L3.34937 37.5V12.5L25 0Z" fill="#E92929"/>
<path d="M25 7L40.5885 16V34L25 43L9.41154 34V16L25 7Z" fill="#E92929"/>
<g clip-path="url(#clip0_12_37)">
<path d="M24.3813 26.3475L25.3754 27.3415C25.4921 27.4582 25.6264 27.5448 25.7677 27.6118L27.6336 25.7458C27.5666 25.6045 27.4801 25.4702 27.3634 25.3535L26.3694 24.3595L25.7066 25.0221L20.594 19.9313L21.3165 19.2087L18.2238 17L17 18.2238L19.2087 21.3165L19.9313 20.594L25.0439 25.6848L24.3813 26.3475Z" fill="white"/>
<path d="M23.368 28.6201L24.3813 27.6728L23.0559 26.3475L23.7186 25.6848L23.0559 25.0221L21.38 26.6321C20.1976 26.2114 18.8592 26.502 17.9591 27.4022C16.6803 28.6809 16.6803 30.7622 17.9591 32.041C19.2379 33.3197 21.3192 33.3197 22.5979 32.041C23.498 31.1407 23.7887 29.8024 23.368 28.6201ZM19.2844 30.7156C18.7363 30.1673 18.7363 29.2756 19.2844 28.7274C19.8325 28.1793 20.7244 28.1793 21.2725 28.7274C21.8207 29.2756 21.8207 30.1673 21.2725 30.7156C20.7244 31.2637 19.8326 31.2637 19.2844 30.7156Z" fill="white"/>
<path d="M20.6098 29.3901C20.427 29.2074 20.13 29.2074 19.9471 29.3901C19.7644 29.573 19.7644 29.87 19.9471 30.0528C20.13 30.2357 20.427 30.2357 20.6098 30.0528C20.7926 29.87 20.7926 29.573 20.6098 29.3901Z" fill="white"/>
<path d="M32.3093 29.0013L29.02 25.6848L27.6946 27.0101L30.6526 29.9954L29.9899 30.6581L27.032 27.6728L25.7065 28.9982L28.9958 32.3148C29.9093 33.2283 31.3959 33.2283 32.3093 32.3148C33.2228 31.4014 33.2228 29.9148 32.3093 29.0013Z" fill="white"/>
<path d="M26.6262 21.3856L25.0439 23.034L25.7067 23.6967L26.3694 23.034L27.6947 24.3593L28.6143 23.3737C29.7966 23.7944 31.135 23.5037 32.0351 22.6036C33.0152 21.6235 33.2728 20.1234 32.6759 18.8708L32.6044 18.7209L30.7098 20.6156H29.3844V19.2901L31.279 17.3956L31.1291 17.3242C29.8766 16.7271 28.3765 16.9847 27.3964 17.9648C26.4962 18.865 26.2056 20.2033 26.6262 21.3856Z" fill="white"/>
</g>
<defs>
<clipPath id="clip0_12_37">
<rect width="16" height="16" fill="white" transform="translate(17 17)"/>
</clipPath>
</defs>
</svg>
