<svg width="1440" height="907" viewBox="0 0 1440 907" fill="none" xmlns="http://www.w3.org/2000/svg">
<g opacity="0.25">
<mask id="mask0_22_8" style="mask-type:alpha" maskUnits="userSpaceOnUse" x="0" y="0" width="1440" height="900">
<rect width="1440" height="900" fill="#F8F9FD"/>
</mask>
<g mask="url(#mask0_22_8)">
</g>
<g clip-path="url(#clip0_22_8)">
<g style="mix-blend-mode:overlay">
<path d="M1124.89 772.369C1124.89 770.449 1125.67 768.569 1127.02 767.2C1128.39 765.851 1130.27 765.075 1132.19 765.075C1134.11 765.075 1136.01 765.851 1137.36 767.2C1140.08 769.918 1140.08 774.821 1137.36 777.539C1135.99 778.888 1134.11 779.664 1132.19 779.664C1130.27 779.664 1128.39 778.867 1127.02 777.539C1125.67 776.17 1124.89 774.29 1124.89 772.369Z" fill="white"/>
<path d="M838.273 765.075C842.34 765.075 845.611 768.344 845.611 772.369C845.611 776.395 842.34 779.664 838.273 779.664C834.246 779.664 830.976 776.395 830.976 772.369C830.976 768.344 834.246 765.075 838.273 765.075ZM880.296 765.075C884.323 765.075 887.593 768.344 887.593 772.369C887.593 776.395 884.323 779.664 880.296 779.664C876.27 779.664 872.999 776.395 872.999 772.369C872.999 768.344 876.27 765.075 880.296 765.075ZM922.258 765.075C926.284 765.075 929.555 768.344 929.555 772.369C929.555 776.395 926.284 779.664 922.258 779.664C918.231 779.664 914.961 776.395 914.961 772.369C914.961 768.344 918.231 765.075 922.258 765.075ZM964.261 765.075C968.287 765.075 971.557 768.344 971.557 772.369C971.557 776.395 968.287 779.664 964.261 779.664C960.234 779.664 956.964 776.395 956.964 772.369C956.964 768.344 960.234 765.075 964.261 765.075ZM1006.24 765.075C1010.27 765.075 1013.54 768.344 1013.54 772.369C1013.54 776.395 1010.27 779.664 1006.24 779.664C1002.22 779.664 998.946 776.395 998.946 772.369C998.946 768.344 1002.22 765.075 1006.24 765.075ZM1048.23 765.075C1052.25 765.075 1055.52 768.344 1055.52 772.369C1055.52 776.395 1052.25 779.664 1048.23 779.664C1044.22 779.664 1040.93 776.395 1040.93 772.369C1040.93 768.344 1044.22 765.075 1048.23 765.075ZM1090.23 765.075C1094.25 765.075 1097.52 768.344 1097.52 772.369C1097.52 776.395 1094.25 779.664 1090.23 779.664C1086.2 779.664 1082.93 776.395 1082.93 772.369C1082.93 768.344 1086.2 765.075 1090.23 765.075Z" fill="white"/>
<path d="M796.311 735.141C800.338 735.141 803.608 738.41 803.608 742.435C803.608 746.461 800.338 749.73 796.311 749.73C792.284 749.73 789.014 746.461 789.014 742.435C789.014 738.41 792.284 735.141 796.311 735.141ZM838.314 735.141C842.34 735.141 845.611 738.41 845.611 742.435C845.611 746.461 842.34 749.73 838.314 749.73C834.287 749.73 831.017 746.461 831.017 742.435C831.017 738.41 834.287 735.141 838.314 735.141ZM880.296 735.141C884.323 735.141 887.593 738.41 887.593 742.435C887.593 746.461 884.323 749.73 880.296 749.73C876.269 749.73 872.999 746.461 872.999 742.435C872.999 738.41 876.269 735.141 880.296 735.141ZM922.258 735.141C926.284 735.141 929.555 738.41 929.555 742.435C929.555 746.461 926.284 749.73 922.258 749.73C918.231 749.73 914.961 746.461 914.961 742.435C914.961 738.41 918.231 735.141 922.258 735.141ZM964.261 735.141C968.287 735.141 971.557 738.41 971.557 742.435C971.557 746.461 968.287 749.73 964.261 749.73C960.234 749.73 956.964 746.461 956.964 742.435C956.964 738.41 960.234 735.141 964.261 735.141ZM1006.24 735.141C1010.27 735.141 1013.54 738.41 1013.54 742.435C1013.54 746.461 1010.27 749.73 1006.24 749.73C1002.22 749.73 998.946 746.461 998.946 742.435C998.946 738.41 1002.22 735.141 1006.24 735.141ZM1048.23 735.141C1052.25 735.141 1055.52 738.41 1055.52 742.435C1055.52 746.461 1052.25 749.73 1048.23 749.73C1044.2 749.73 1040.93 746.461 1040.93 742.435C1040.93 738.41 1044.2 735.141 1048.23 735.141ZM1090.23 735.141C1094.25 735.141 1097.52 738.41 1097.52 742.435C1097.52 746.461 1094.25 749.73 1090.23 749.73C1086.2 749.73 1082.93 746.461 1082.93 742.435C1082.93 738.41 1086.2 735.141 1090.23 735.141Z" fill="white"/>
<path d="M754.329 705.207C758.355 705.207 761.626 708.476 761.626 712.501C761.626 716.527 758.355 719.796 754.329 719.796C750.302 719.796 747.032 716.527 747.032 712.501C747.032 708.476 750.302 705.207 754.329 705.207ZM796.311 705.207C800.338 705.207 803.608 708.476 803.608 712.501C803.608 716.527 800.338 719.796 796.311 719.796C792.285 719.796 789.014 716.527 789.014 712.501C789.014 708.476 792.285 705.207 796.311 705.207ZM838.314 705.207C842.34 705.207 845.59 708.476 845.59 712.501C845.59 716.527 842.34 719.796 838.314 719.796C834.287 719.796 831.017 716.527 831.017 712.501C831.017 708.476 834.287 705.207 838.314 705.207ZM880.296 705.207C884.323 705.207 887.593 708.476 887.593 712.501C887.593 716.527 884.323 719.796 880.296 719.796C876.27 719.796 872.999 716.527 872.999 712.501C872.999 708.476 876.27 705.207 880.296 705.207ZM922.258 705.207C926.284 705.207 929.555 708.476 929.555 712.501C929.555 716.527 926.284 719.796 922.258 719.796C918.231 719.796 914.961 716.527 914.961 712.501C914.961 708.476 918.231 705.207 922.258 705.207ZM964.261 705.207C968.287 705.207 971.557 708.476 971.557 712.501C971.557 716.527 968.287 719.796 964.261 719.796C960.234 719.796 956.964 716.527 956.964 712.501C956.964 708.476 960.234 705.207 964.261 705.207ZM1006.24 705.207C1010.27 705.207 1013.54 708.476 1013.54 712.501C1013.54 716.527 1010.27 719.796 1006.24 719.796C1002.22 719.796 998.946 716.527 998.946 712.501C998.946 708.476 1002.22 705.207 1006.24 705.207ZM1048.23 705.207C1052.29 705.207 1055.52 708.476 1055.52 712.501C1055.52 716.527 1052.27 719.796 1048.23 719.796C1044.2 719.796 1040.93 716.527 1040.93 712.501C1040.93 708.476 1044.2 705.207 1048.23 705.207Z" fill="white"/>
<path d="M754.329 675.273C758.355 675.273 761.626 678.542 761.626 682.567C761.626 686.593 758.355 689.862 754.329 689.862C750.302 689.862 747.032 686.593 747.032 682.567C747.032 678.542 750.302 675.273 754.329 675.273ZM796.311 675.273C800.338 675.273 803.608 678.542 803.608 682.567C803.608 686.593 800.338 689.862 796.311 689.862C792.285 689.862 789.014 686.593 789.014 682.567C789.014 678.542 792.285 675.273 796.311 675.273ZM838.314 675.273C842.34 675.273 845.59 678.542 845.59 682.567C845.59 686.593 842.34 689.862 838.314 689.862C834.287 689.862 831.017 686.593 831.017 682.567C831.017 678.542 834.287 675.273 838.314 675.273ZM880.296 675.273C884.323 675.273 887.593 678.542 887.593 682.567C887.593 686.593 884.323 689.862 880.296 689.862C876.27 689.862 872.999 686.593 872.999 682.567C872.999 678.542 876.27 675.273 880.296 675.273ZM922.258 675.273C926.284 675.273 929.555 678.542 929.555 682.567C929.555 686.593 926.284 689.862 922.258 689.862C918.231 689.862 914.961 686.593 914.961 682.567C914.961 678.542 918.231 675.273 922.258 675.273ZM964.261 675.273C968.287 675.273 971.557 678.542 971.557 682.567C971.557 686.593 968.287 689.862 964.261 689.862C960.234 689.862 956.964 686.593 956.964 682.567C956.964 678.542 960.234 675.273 964.261 675.273ZM1006.24 675.273C1010.27 675.273 1013.54 678.542 1013.54 682.567C1013.54 686.593 1010.27 689.862 1006.24 689.862C1002.22 689.862 998.946 686.593 998.946 682.567C998.946 678.542 1002.22 675.273 1006.24 675.273Z" fill="white"/>
<path d="M705.009 682.588C705.009 680.667 705.806 678.787 707.175 677.418C708.524 676.07 710.425 675.293 712.326 675.293C714.227 675.293 716.148 676.07 717.497 677.418C720.216 680.136 720.216 685.04 717.497 687.757C716.148 689.106 714.247 689.882 712.326 689.882C710.405 689.882 708.524 689.085 707.175 687.757C705.806 686.388 705.009 684.529 705.009 682.588Z" fill="white"/>
<path d="M754.329 645.339C758.355 645.339 761.626 648.608 761.626 652.633C761.626 656.659 758.355 659.928 754.329 659.928C750.302 659.928 747.032 656.659 747.032 652.633C747.032 648.608 750.302 645.339 754.329 645.339ZM796.311 645.339C800.338 645.339 803.608 648.608 803.608 652.633C803.608 656.659 800.338 659.928 796.311 659.928C792.285 659.928 789.014 656.659 789.014 652.633C789.014 648.608 792.285 645.339 796.311 645.339ZM838.314 645.339C842.34 645.339 845.59 648.608 845.59 652.633C845.59 656.659 842.34 659.928 838.314 659.928C834.287 659.928 831.017 656.659 831.017 652.633C831.017 648.608 834.287 645.339 838.314 645.339ZM880.296 645.339C884.323 645.339 887.593 648.608 887.593 652.633C887.593 656.659 884.323 659.928 880.296 659.928C876.27 659.928 872.999 656.659 872.999 652.633C872.999 648.608 876.27 645.339 880.296 645.339ZM922.258 645.339C926.284 645.339 929.555 648.608 929.555 652.633C929.555 656.659 926.284 659.928 922.258 659.928C918.231 659.928 914.961 656.659 914.961 652.633C914.961 648.608 918.231 645.339 922.258 645.339ZM964.261 645.339C968.287 645.339 971.557 648.608 971.557 652.633C971.557 656.659 968.287 659.928 964.261 659.928C960.234 659.928 956.964 656.659 956.964 652.633C956.964 648.608 960.234 645.339 964.261 645.339Z" fill="white"/>
<path d="M705.009 652.654C705.009 650.733 705.806 648.853 707.175 647.484C708.524 646.136 710.425 645.359 712.326 645.359C714.227 645.359 716.148 646.156 717.497 647.484C720.216 650.202 720.216 655.106 717.497 657.823C716.148 659.172 714.247 659.948 712.326 659.948C710.405 659.948 708.524 659.151 707.175 657.823C705.806 656.454 705.009 654.574 705.009 652.654Z" fill="white"/>
</g>
<path d="M749.73 494.994C749.73 584.796 822.555 657.578 912.365 657.578C1002.18 657.578 1075 584.776 1075 494.994C1075 405.212 1002.18 332.41 912.365 332.41C822.555 332.41 749.73 405.212 749.73 494.994Z" fill="url(#paint0_radial_22_8)"/>
<path d="M850.209 494.994C850.209 529.321 878.048 557.13 912.365 557.13C946.683 557.13 974.521 529.301 974.521 494.994C974.521 460.687 946.683 432.858 912.365 432.858C878.048 432.858 850.209 460.687 850.209 494.994Z" fill="url(#paint1_radial_22_8)"/>
<path d="M820 530.608L797.047 549.08L807.859 567.796L835.35 557.151C839.765 562.606 844.732 567.592 850.189 571.985L839.54 599.467L858.262 610.276L876.74 587.33C883.198 589.823 889.984 591.682 897.036 592.786L901.553 621.882H923.178L927.695 592.786C934.746 591.682 941.532 589.843 947.991 587.33L966.468 610.276L985.19 599.467L974.542 571.985C979.999 567.571 984.986 562.606 989.38 557.151L1016.87 567.796L1027.68 549.08L1004.73 530.608C1007.22 524.131 1009.08 517.348 1010.17 510.319L1039.27 505.803V484.185L1010.17 479.669C1009.06 472.641 1007.22 465.857 1004.73 459.38L1027.68 440.908L1016.87 422.192L989.38 432.837C984.966 427.382 979.999 422.417 974.542 418.003L985.19 390.521L966.468 379.712L947.991 402.658C941.532 400.165 934.746 398.306 927.695 397.223L923.178 368.106H901.553L897.036 397.223C889.984 398.326 883.219 400.165 876.74 402.658L858.262 379.712L839.54 390.521L850.189 418.003C844.732 422.417 839.745 427.382 835.35 432.837L807.859 422.192L797.047 440.908L820 459.38C817.507 465.836 815.647 472.62 814.563 479.669L785.458 484.185V505.803L814.563 510.319C815.667 517.348 817.507 524.131 820 530.608ZM850.904 494.994C850.904 461.055 878.416 433.553 912.365 433.553C946.315 433.553 973.826 461.055 973.826 494.994C973.826 528.933 946.315 556.436 912.365 556.436C878.416 556.436 850.904 528.933 850.904 494.994Z" fill="#E0E0E0"/>
<path d="M723.322 567.878L676.332 605.679L698.468 643.99L754.738 622.188C763.772 633.345 773.95 643.541 785.131 652.572L763.322 708.844L801.646 730.952L839.458 683.977C852.683 689.085 866.581 692.886 880.991 695.133L890.23 754.695H934.481L943.719 695.133C958.129 692.886 972.028 689.106 985.252 683.977L1023.06 730.952L1061.39 708.844L1039.58 652.572C1050.76 643.541 1060.94 633.365 1069.97 622.188L1126.24 643.99L1148.36 605.679L1101.37 567.878C1106.48 554.637 1110.28 540.764 1112.51 526.358L1172.11 517.123V472.886L1112.51 463.65C1110.28 449.245 1106.48 435.351 1101.37 422.131L1148.36 384.33L1126.22 346.018L1069.95 367.82C1060.92 356.664 1050.74 346.468 1039.56 337.437L1061.37 281.185L1023.04 259.056L985.231 306.052C971.987 300.944 958.108 297.143 943.699 294.916L934.46 235.354H890.209L880.971 294.916C866.561 297.143 852.683 300.944 839.438 306.052L801.625 259.077L763.302 281.185L785.11 337.457C773.93 346.488 763.751 356.664 754.717 367.841L698.448 346.039L676.312 384.35L723.302 422.151C718.192 435.392 714.39 449.265 712.163 463.691L652.582 472.927V517.164L712.163 526.399C714.411 540.804 718.192 554.699 723.302 567.919L723.322 567.878ZM754.738 494.994C754.738 407.971 825.314 337.416 912.365 337.416C999.416 337.416 1069.99 407.971 1069.99 494.994C1069.99 582.017 999.416 652.572 912.365 652.572C825.314 652.572 754.738 582.017 754.738 494.994Z" fill="#E0E0E0"/>
<path d="M631.55 494.994C631.55 340.195 757.538 214.268 912.365 214.268C1067.19 214.268 1193.18 340.195 1193.18 494.994C1193.18 649.793 1067.21 775.72 912.365 775.72C757.517 775.72 631.55 649.793 631.55 494.994ZM633.328 494.994C633.328 648.812 758.498 773.943 912.365 773.943C1066.23 773.943 1191.4 648.812 1191.4 494.994C1191.4 341.176 1066.23 216.045 912.365 216.045C758.498 216.045 633.328 341.176 633.328 494.994Z" fill="#E0E0E0"/>
<path d="M912.365 168.825C846.673 168.825 785.478 188.338 734.237 221.869V217.598C785.642 184.497 846.796 165.27 912.365 165.27C1069.4 165.27 1201.13 275.546 1234.2 422.682L1230.73 423.5C1198.02 277.936 1067.72 168.846 912.386 168.846L912.365 168.825Z" fill="#E0E0E0"/>
<path d="M636.455 314.532H640.748C606.246 366.247 586.093 428.301 586.093 494.994C586.093 674.844 732.459 821.163 912.365 821.163C1092.27 821.163 1223.72 689.269 1237.49 522.006L1241.23 520.372C1228.23 690.373 1085.69 824.718 912.365 824.718C730.496 824.718 582.516 676.805 582.516 494.974C582.516 428.404 602.363 366.39 636.455 314.511V314.532Z" fill="#E0E0E0"/>
<path d="M1147.78 251.966L1150.32 249.433C1197.33 294.977 1231.34 353.844 1246.2 419.863L1242.73 420.68C1228.01 355.315 1194.35 297.041 1147.81 251.966H1147.78Z" fill="#E0E0E0"/>
<path d="M1250.27 516.449L1253.97 514.834C1248.24 614.363 1199.74 702.612 1126.63 761.479L1124.1 758.945C1196.16 701.059 1244.12 614.322 1250.27 516.449Z" fill="#E0E0E0"/>
<path d="M621.841 314.531H626.072C592.981 366.799 573.768 428.69 573.768 494.994C573.768 586.37 610.191 669.388 669.26 730.339L666.726 732.873C607.002 671.268 570.191 587.35 570.191 494.994C570.191 428.792 589.138 366.962 621.841 314.531Z" fill="#E0E0E0"/>
<path d="M734.237 187.133C786.664 156.688 847.511 139.238 912.365 139.238C1046.53 139.238 1163.58 213.859 1224.21 323.747L1221.08 325.483C1161.07 216.679 1045.18 142.794 912.345 142.794C847.389 142.794 786.5 160.468 734.216 191.24V187.112L734.237 187.133Z" fill="#E0E0E0"/>
<path d="M912.365 847.195C1019.67 847.195 1115.9 798.973 1180.57 723.086L1183.31 725.374C1117.98 802.058 1020.75 850.77 912.345 850.77C780.123 850.77 664.518 778.295 603.16 671.023L606.287 669.266C667.032 775.455 781.472 847.195 912.345 847.195H912.365Z" fill="#E0E0E0"/>
<path d="M719.051 271.336C770.435 226.895 837.23 199.801 910.219 199.27V201.048C837.108 201.579 770.271 228.918 719.051 273.707V271.336Z" fill="#E0E0E0"/>
<path d="M687.451 303.232H689.802C661.064 336.497 639.623 376.198 628.055 419.924H626.195C637.661 376.279 658.939 336.578 687.451 303.232Z" fill="#E0E0E0"/>
<path d="M722.914 721.962L724.181 720.695C775.218 763.297 840.848 788.961 912.365 788.961C965.753 788.961 1015.87 774.658 1059.06 749.689L1060.12 751.14C1016.63 776.313 966.141 790.739 912.365 790.739C840.358 790.739 774.277 764.871 722.914 721.962Z" fill="#E0E0E0"/>
<path d="M918.62 176.038H906.111V215.167H918.62V176.038Z" fill="#E0E0E0"/>
<path d="M933.935 176.675L930.524 215.655L942.985 216.745L946.397 177.765L933.935 176.675Z" fill="#E0E0E0"/>
<path d="M961.607 179.788L954.81 218.322L967.129 220.494L973.926 181.959L961.607 179.788Z" fill="#E0E0E0"/>
<path d="M988.877 185.275L978.746 223.07L990.829 226.307L1000.96 188.511L988.877 185.275Z" fill="#E0E0E0"/>
<path d="M1015.57 193.103L1002.19 229.872L1013.94 234.149L1027.33 197.379L1015.57 193.103Z" fill="#E0E0E0"/>
<path d="M1041.49 203.214L1024.95 238.676L1036.29 243.961L1052.83 208.498L1041.49 203.214Z" fill="#E0E0E0"/>
<path d="M1066.54 215.71L1046.97 249.593L1057.8 255.847L1077.37 221.964L1066.54 215.71Z" fill="#E0E0E0"/>
<path d="M1090.22 230.098L1067.77 262.15L1078.02 269.323L1100.47 237.27L1090.22 230.098Z" fill="#E0E0E0"/>
<path d="M1112.66 246.6L1087.5 276.574L1097.08 284.612L1122.24 254.638L1112.66 246.6Z" fill="#E0E0E0"/>
<path d="M727.628 705.318L702.481 735.277L712.064 743.315L737.21 713.356L727.628 705.318Z" fill="#E0E0E0"/>
<path d="M1133.54 264.965L1105.86 292.633L1114.71 301.476L1142.39 273.807L1133.54 264.965Z" fill="#E0E0E0"/>
<path d="M710.003 688.456L682.341 716.11L691.186 724.952L718.848 697.299L710.003 688.456Z" fill="#E0E0E0"/>
<path d="M1152.75 285.074L1122.76 310.226L1130.81 319.805L1160.79 294.653L1152.75 285.074Z" fill="#E0E0E0"/>
<path d="M693.91 670.137L663.926 695.288L671.967 704.868L701.951 679.716L693.91 670.137Z" fill="#E0E0E0"/>
<path d="M1170.16 306.936L1138.1 329.38L1145.28 339.623L1177.34 317.18L1170.16 306.936Z" fill="#E0E0E0"/>
<path d="M679.475 650.391L647.429 672.822L654.604 683.066L686.649 660.634L679.475 650.391Z" fill="#E0E0E0"/>
<path d="M1185.58 330.082L1151.68 349.647L1157.94 360.476L1191.83 340.912L1185.58 330.082Z" fill="#E0E0E0"/>
<path d="M666.809 629.533L632.929 649.087L639.184 659.916L673.063 640.362L666.809 629.533Z" fill="#E0E0E0"/>
<path d="M1198.9 354.474L1163.43 371.011L1168.71 382.344L1204.19 365.808L1198.9 354.474Z" fill="#E0E0E0"/>
<path d="M655.986 607.633L620.531 624.161L625.817 635.494L661.273 618.966L655.986 607.633Z" fill="#E0E0E0"/>
<path d="M1210.06 379.986L1173.28 393.369L1177.56 405.119L1214.34 391.737L1210.06 379.986Z" fill="#E0E0E0"/>
<path d="M647.202 584.813L610.441 598.189L614.719 609.94L651.48 596.564L647.202 584.813Z" fill="#E0E0E0"/>
<path d="M640.376 561.351L602.588 571.473L605.825 583.552L643.613 573.43L640.376 561.351Z" fill="#E0E0E0"/>
<path d="M635.604 537.411L597.077 544.202L599.25 556.517L637.776 549.726L635.604 537.411Z" fill="#E0E0E0"/>
<path d="M599.234 433.404L597.06 445.719L635.585 452.516L637.759 440.202L599.234 433.404Z" fill="#E0E0E0"/>
<path d="M1184.42 561.439L1181.18 573.517L1218.99 583.651L1222.23 571.573L1184.42 561.439Z" fill="#E0E0E0"/>
<path d="M605.838 406.415L602.598 418.494L640.384 428.622L643.624 416.544L605.838 406.415Z" fill="#E0E0E0"/>
<path d="M1177.54 584.823L1173.26 596.573L1210.04 609.962L1214.32 598.212L1177.54 584.823Z" fill="#E0E0E0"/>
<path d="M1168.77 607.69L1163.48 619.023L1198.95 635.56L1204.24 624.226L1168.77 607.69Z" fill="#E0E0E0"/>
<path d="M1157.92 629.517L1151.66 640.346L1185.56 659.916L1191.81 649.088L1157.92 629.517Z" fill="#E0E0E0"/>
<path d="M1145.28 650.426L1138.1 660.668L1170.16 683.117L1177.34 672.875L1145.28 650.426Z" fill="#E0E0E0"/>
<path d="M1130.81 669.993L1122.77 679.572L1152.76 704.724L1160.8 695.144L1130.81 669.993Z" fill="#E0E0E0"/>
<path d="M1114.72 688.537L1105.88 697.378L1133.55 725.051L1142.4 716.21L1114.72 688.537Z" fill="#E0E0E0"/>
<path d="M1097.1 705.359L1087.52 713.396L1112.67 743.374L1122.25 735.338L1097.1 705.359Z" fill="#E0E0E0"/>
<path d="M1078.06 720.606L1067.82 727.777L1090.26 759.834L1100.51 752.663L1078.06 720.606Z" fill="#E0E0E0"/>
<path d="M1057.74 734.174L1046.91 740.426L1066.48 774.313L1077.31 768.06L1057.74 734.174Z" fill="#E0E0E0"/>
<path opacity="0.5" d="M562.404 270.049L540.268 287.846L550.692 305.888L577.202 295.611C581.453 300.862 586.256 305.664 591.509 309.914L581.228 336.415L599.276 346.836L617.079 324.707C623.313 327.118 629.853 328.896 636.639 329.958L640.993 358.012H661.841L666.195 329.958C672.98 328.896 679.521 327.118 685.755 324.707L703.557 346.836L721.605 336.415L711.324 309.914C716.577 305.664 721.381 300.862 725.632 295.611L752.142 305.888L762.566 287.846L740.43 270.049C742.842 263.817 744.62 257.279 745.683 250.495L773.746 246.143V225.301L745.683 220.949C744.62 214.165 742.842 207.627 740.43 201.395L762.566 183.598L752.142 165.556L725.632 175.834C721.381 170.562 716.577 165.781 711.324 161.531L721.585 135.029L703.537 124.608L685.734 146.737C679.5 144.326 672.96 142.548 666.174 141.486L661.821 113.432H640.972L636.619 141.486C629.833 142.548 623.292 144.326 617.058 146.737L599.256 124.608L581.208 135.029L591.489 161.531C586.216 165.781 581.433 170.582 577.181 175.834L550.672 165.556L540.248 183.598L562.383 201.395C559.972 207.627 558.193 214.165 557.131 220.949L529.067 225.301V246.143L557.131 250.495C558.193 257.279 559.972 263.817 562.383 270.049H562.404ZM577.202 235.702C577.202 194.713 610.436 161.469 651.458 161.469C692.479 161.469 725.714 194.693 725.714 235.702C725.714 276.71 692.479 309.934 651.458 309.934C610.436 309.934 577.202 276.71 577.202 235.702Z" fill="#C7C7C7"/>
<path d="M1219.32 484.451L1204.89 496.056L1211.68 507.805L1228.95 501.124C1231.73 504.557 1234.86 507.683 1238.27 510.441L1231.59 527.707L1243.34 534.491L1254.95 520.085C1259.02 521.659 1263.27 522.824 1267.7 523.498L1270.54 541.785H1284.12L1286.96 523.498C1291.37 522.803 1295.64 521.638 1299.71 520.085L1311.32 534.491L1323.07 527.707L1316.39 510.441C1319.82 507.683 1322.95 504.557 1325.71 501.124L1342.98 507.805L1349.77 496.056L1335.34 484.451C1336.91 480.385 1338.07 476.135 1338.75 471.701L1357.04 468.86V455.293L1338.75 452.453C1338.05 448.039 1336.89 443.769 1335.34 439.703L1349.77 428.097L1342.98 416.328L1325.71 423.009C1322.93 419.576 1319.8 416.45 1316.39 413.692L1323.07 396.426L1311.32 389.642L1299.71 404.068C1295.64 402.495 1291.39 401.33 1286.96 400.656L1284.12 382.368H1270.54L1267.7 400.656C1263.29 401.33 1259.02 402.515 1254.95 404.068L1243.34 389.642L1231.59 396.426L1238.27 413.692C1234.84 416.471 1231.71 419.597 1228.95 423.009L1211.68 416.328L1204.89 428.077L1219.32 439.682C1217.75 443.748 1216.58 447.999 1215.91 452.432L1197.62 455.273V468.84L1215.91 471.68C1216.6 476.094 1217.77 480.364 1219.32 484.43V484.451ZM1228.95 462.097C1228.95 435.391 1250.62 413.733 1277.33 413.733C1304.04 413.733 1325.71 435.391 1325.71 462.097C1325.71 488.803 1304.06 510.462 1277.33 510.462C1250.59 510.462 1228.95 488.803 1228.95 462.097Z" fill="url(#paint2_linear_22_8)"/>
<path d="M1247.94 462.097C1247.94 478.341 1261.1 491.48 1277.33 491.48C1293.56 491.48 1306.72 478.321 1306.72 462.097C1306.72 445.873 1293.56 432.715 1277.33 432.715C1261.1 432.715 1247.94 445.873 1247.94 462.097Z" fill="url(#paint3_linear_22_8)"/>
<path d="M564.243 360.914C548.996 401.534 540.616 445.526 540.616 491.48C540.616 696.727 707.053 863.112 912.365 863.112C1085.61 863.112 1231.16 744.642 1272.42 584.326L1313.94 595.197C1267.87 773.943 1105.56 906 912.386 906C683.384 906 497.734 720.409 497.734 491.48C497.734 440.234 507.054 391.154 524.08 345.855L564.243 360.914Z" fill="#E0E0E0"/>
<path d="M1303.16 352.68L1262.78 367.146C1211.98 224.116 1076.08 121.4 915.942 119.888V77C1094.68 78.512 1246.42 193.079 1303.16 352.68Z" fill="url(#paint4_linear_22_8)"/>
<path d="M1354.65 632.221L1409.41 686.96H1592.16V688.758H1408.67L1353.91 634.019H1222.74L1221.37 632.221H1354.65Z" fill="#BABABA"/>
<path d="M1354.65 614.363L1409.41 669.102H1540.34V670.88H1408.67L1353.91 616.14H1207.69L1206 614.363H1354.65Z" fill="#BABABA"/>
<path d="M1354.65 596.484L1409.41 651.244H1498.62V653.021H1408.67L1353.91 598.282H1190.69L1188.58 596.484H1354.65Z" fill="#BABABA"/>
<path d="M1354.65 578.625L1409.41 633.365H1464.08V635.163H1408.67L1353.91 580.403H1171.23L1169.12 578.625H1354.65Z" fill="#BABABA"/>
</g>
<g clip-path="url(#clip1_22_8)">
<path d="M-202.396 909.481L-232.693 933.879L-218.417 958.593L-182.127 944.522C-176.303 951.736 -169.743 958.299 -162.531 964.125L-176.597 1000.43L-151.892 1014.71L-127.503 984.401C-118.966 987.703 -110.009 990.143 -100.716 991.594L-94.7448 1030.02H-66.2131L-60.2419 991.594C-50.9486 990.143 -41.9917 987.703 -33.4553 984.401L-9.0657 1014.71L15.6393 1000.43L1.57323 964.125C8.78497 958.299 15.345 951.736 21.169 944.522L57.4591 958.593L71.7144 933.879L41.4166 909.481C44.7176 900.942 47.1566 891.982 48.6074 882.685L87.021 876.733V848.191L48.6074 842.218C47.1566 832.921 44.7176 823.961 41.4166 815.422L71.7144 791.024L57.4381 766.31L21.148 780.381C15.3239 773.167 8.76398 766.604 1.5522 760.778L15.6183 724.475L-9.08673 710.194L-33.4553 740.503C-41.9917 737.2 -50.9486 734.761 -60.2419 733.309L-66.2131 694.882H-94.7448L-100.716 733.309C-110.009 734.761 -118.966 737.2 -127.503 740.503L-151.892 710.194L-176.597 724.454L-162.531 760.757C-169.743 766.583 -176.303 773.146 -182.127 780.36L-218.417 766.289L-232.693 791.003L-202.396 815.401C-205.697 823.94 -208.136 832.9 -209.586 842.197L-248 848.17V876.712L-209.586 882.664C-208.136 891.961 -205.697 900.921 -202.396 909.46V909.481ZM-182.127 862.452C-182.127 806.294 -136.628 760.778 -80.4895 760.778C-24.3513 760.778 21.148 806.294 21.148 862.452C21.148 918.61 -24.3513 964.125 -80.4895 964.125C-136.628 964.125 -182.127 918.61 -182.127 862.452Z" fill="#E0E0E0"/>
<path d="M-81.1203 667.666L-95.0603 678.876L-88.5003 690.234L-71.827 683.777C-69.1568 687.079 -66.1291 690.108 -62.8071 692.779L-69.2619 709.479L-57.9081 716.041L-46.7015 702.096C-42.7697 703.611 -38.6698 704.747 -34.3806 705.399L-31.6472 723.066H-18.5273L-15.794 705.399C-11.5258 704.726 -7.40477 703.611 -3.473 702.096L7.7336 716.041L19.0874 709.479L12.6326 692.779C15.9546 690.108 18.9613 687.079 21.6315 683.777L38.3047 690.234L44.8647 678.876L30.9248 667.666C32.4386 663.732 33.574 659.631 34.2258 655.34L51.8873 652.606V639.481L34.2258 636.747C33.553 632.477 32.4386 628.355 30.9248 624.422L44.8647 613.211L38.3047 601.853L21.6315 608.311C18.9613 605.008 15.9336 601.98 12.6326 599.308L19.0874 582.608L7.7336 576.046L-3.473 589.991C-7.40477 588.477 -11.5258 587.341 -15.794 586.689L-18.5273 569.021H-31.6472L-34.3806 586.689C-38.6487 587.341 -42.7697 588.477 -46.7015 589.991L-57.9081 576.067L-69.2619 582.629L-62.7861 599.33C-66.1081 602.001 -69.1147 605.029 -71.806 608.332L-88.4793 601.875L-95.0392 613.232L-81.0993 624.443C-82.6132 628.376 -83.7485 632.498 -84.4003 636.768L-102.062 639.502V652.627L-84.4003 655.361C-83.7275 659.631 -82.6132 663.753 -81.0993 667.687L-81.1203 667.666ZM-71.806 646.044C-71.806 620.236 -50.8856 599.308 -25.0873 599.308C0.711075 599.308 21.6315 620.236 21.6315 646.044C21.6315 671.851 0.711075 692.779 -25.0873 692.779C-50.8856 692.779 -71.806 671.851 -71.806 646.044Z" fill="#E0E0E0"/>
</g>
</g>
<rect x="822" width="618" height="900" fill="#202743"/>
<mask id="mask1_22_8" style="mask-type:alpha" maskUnits="userSpaceOnUse" x="822" y="0" width="618" height="900">
<path d="M822 0H1440V900H822V0Z" fill="#202743"/>
</mask>
<g mask="url(#mask1_22_8)">
</g>
<g opacity="0.1" clip-path="url(#clip2_22_8)">
<g style="mix-blend-mode:overlay">
<path d="M1098.89 779.369C1098.89 777.449 1099.67 775.569 1101.02 774.2C1102.39 772.851 1104.27 772.075 1106.19 772.075C1108.11 772.075 1110.01 772.851 1111.36 774.2C1114.08 776.918 1114.08 781.821 1111.36 784.539C1109.99 785.888 1108.11 786.664 1106.19 786.664C1104.27 786.664 1102.39 785.867 1101.02 784.539C1099.67 783.17 1098.89 781.29 1098.89 779.369Z" fill="white"/>
<path d="M812.273 772.075C816.34 772.075 819.611 775.344 819.611 779.369C819.611 783.395 816.34 786.664 812.273 786.664C808.246 786.664 804.976 783.395 804.976 779.369C804.976 775.344 808.246 772.075 812.273 772.075ZM854.296 772.075C858.323 772.075 861.593 775.344 861.593 779.369C861.593 783.395 858.323 786.664 854.296 786.664C850.27 786.664 846.999 783.395 846.999 779.369C846.999 775.344 850.27 772.075 854.296 772.075ZM896.258 772.075C900.284 772.075 903.555 775.344 903.555 779.369C903.555 783.395 900.284 786.664 896.258 786.664C892.231 786.664 888.961 783.395 888.961 779.369C888.961 775.344 892.231 772.075 896.258 772.075ZM938.261 772.075C942.287 772.075 945.557 775.344 945.557 779.369C945.557 783.395 942.287 786.664 938.261 786.664C934.234 786.664 930.964 783.395 930.964 779.369C930.964 775.344 934.234 772.075 938.261 772.075ZM980.243 772.075C984.269 772.075 987.54 775.344 987.54 779.369C987.54 783.395 984.269 786.664 980.243 786.664C976.216 786.664 972.946 783.395 972.946 779.369C972.946 775.344 976.216 772.075 980.243 772.075ZM1022.23 772.075C1026.25 772.075 1029.52 775.344 1029.52 779.369C1029.52 783.395 1026.25 786.664 1022.23 786.664C1018.22 786.664 1014.93 783.395 1014.93 779.369C1014.93 775.344 1018.22 772.075 1022.23 772.075ZM1064.23 772.075C1068.25 772.075 1071.52 775.344 1071.52 779.369C1071.52 783.395 1068.25 786.664 1064.23 786.664C1060.2 786.664 1056.93 783.395 1056.93 779.369C1056.93 775.344 1060.2 772.075 1064.23 772.075Z" fill="white"/>
<path d="M770.311 742.141C774.338 742.141 777.608 745.41 777.608 749.435C777.608 753.461 774.338 756.73 770.311 756.73C766.284 756.73 763.014 753.461 763.014 749.435C763.014 745.41 766.284 742.141 770.311 742.141ZM812.314 742.141C816.34 742.141 819.611 745.41 819.611 749.435C819.611 753.461 816.34 756.73 812.314 756.73C808.287 756.73 805.017 753.461 805.017 749.435C805.017 745.41 808.287 742.141 812.314 742.141ZM854.296 742.141C858.323 742.141 861.593 745.41 861.593 749.435C861.593 753.461 858.323 756.73 854.296 756.73C850.269 756.73 846.999 753.461 846.999 749.435C846.999 745.41 850.269 742.141 854.296 742.141ZM896.258 742.141C900.284 742.141 903.555 745.41 903.555 749.435C903.555 753.461 900.284 756.73 896.258 756.73C892.231 756.73 888.961 753.461 888.961 749.435C888.961 745.41 892.231 742.141 896.258 742.141ZM938.261 742.141C942.287 742.141 945.557 745.41 945.557 749.435C945.557 753.461 942.287 756.73 938.261 756.73C934.234 756.73 930.964 753.461 930.964 749.435C930.964 745.41 934.234 742.141 938.261 742.141ZM980.243 742.141C984.269 742.141 987.54 745.41 987.54 749.435C987.54 753.461 984.269 756.73 980.243 756.73C976.216 756.73 972.946 753.461 972.946 749.435C972.946 745.41 976.216 742.141 980.243 742.141ZM1022.23 742.141C1026.25 742.141 1029.52 745.41 1029.52 749.435C1029.52 753.461 1026.25 756.73 1022.23 756.73C1018.2 756.73 1014.93 753.461 1014.93 749.435C1014.93 745.41 1018.2 742.141 1022.23 742.141ZM1064.23 742.141C1068.25 742.141 1071.52 745.41 1071.52 749.435C1071.52 753.461 1068.25 756.73 1064.23 756.73C1060.2 756.73 1056.93 753.461 1056.93 749.435C1056.93 745.41 1060.2 742.141 1064.23 742.141Z" fill="white"/>
<path d="M728.329 712.207C732.355 712.207 735.626 715.476 735.626 719.501C735.626 723.527 732.355 726.796 728.329 726.796C724.302 726.796 721.032 723.527 721.032 719.501C721.032 715.476 724.302 712.207 728.329 712.207ZM770.311 712.207C774.338 712.207 777.608 715.476 777.608 719.501C777.608 723.527 774.338 726.796 770.311 726.796C766.285 726.796 763.014 723.527 763.014 719.501C763.014 715.476 766.285 712.207 770.311 712.207ZM812.314 712.207C816.34 712.207 819.59 715.476 819.59 719.501C819.59 723.527 816.34 726.796 812.314 726.796C808.287 726.796 805.017 723.527 805.017 719.501C805.017 715.476 808.287 712.207 812.314 712.207ZM854.296 712.207C858.323 712.207 861.593 715.476 861.593 719.501C861.593 723.527 858.323 726.796 854.296 726.796C850.27 726.796 846.999 723.527 846.999 719.501C846.999 715.476 850.27 712.207 854.296 712.207ZM896.258 712.207C900.284 712.207 903.555 715.476 903.555 719.501C903.555 723.527 900.284 726.796 896.258 726.796C892.231 726.796 888.961 723.527 888.961 719.501C888.961 715.476 892.231 712.207 896.258 712.207ZM938.261 712.207C942.287 712.207 945.557 715.476 945.557 719.501C945.557 723.527 942.287 726.796 938.261 726.796C934.234 726.796 930.964 723.527 930.964 719.501C930.964 715.476 934.234 712.207 938.261 712.207ZM980.243 712.207C984.269 712.207 987.54 715.476 987.54 719.501C987.54 723.527 984.269 726.796 980.243 726.796C976.216 726.796 972.946 723.527 972.946 719.501C972.946 715.476 976.216 712.207 980.243 712.207ZM1022.23 712.207C1026.29 712.207 1029.52 715.476 1029.52 719.501C1029.52 723.527 1026.27 726.796 1022.23 726.796C1018.2 726.796 1014.93 723.527 1014.93 719.501C1014.93 715.476 1018.2 712.207 1022.23 712.207Z" fill="white"/>
<path d="M728.329 682.273C732.355 682.273 735.626 685.542 735.626 689.567C735.626 693.593 732.355 696.862 728.329 696.862C724.302 696.862 721.032 693.593 721.032 689.567C721.032 685.542 724.302 682.273 728.329 682.273ZM770.311 682.273C774.338 682.273 777.608 685.542 777.608 689.567C777.608 693.593 774.338 696.862 770.311 696.862C766.285 696.862 763.014 693.593 763.014 689.567C763.014 685.542 766.285 682.273 770.311 682.273ZM812.314 682.273C816.34 682.273 819.59 685.542 819.59 689.567C819.59 693.593 816.34 696.862 812.314 696.862C808.287 696.862 805.017 693.593 805.017 689.567C805.017 685.542 808.287 682.273 812.314 682.273ZM854.296 682.273C858.323 682.273 861.593 685.542 861.593 689.567C861.593 693.593 858.323 696.862 854.296 696.862C850.27 696.862 846.999 693.593 846.999 689.567C846.999 685.542 850.27 682.273 854.296 682.273ZM896.258 682.273C900.284 682.273 903.555 685.542 903.555 689.567C903.555 693.593 900.284 696.862 896.258 696.862C892.231 696.862 888.961 693.593 888.961 689.567C888.961 685.542 892.231 682.273 896.258 682.273ZM938.261 682.273C942.287 682.273 945.557 685.542 945.557 689.567C945.557 693.593 942.287 696.862 938.261 696.862C934.234 696.862 930.964 693.593 930.964 689.567C930.964 685.542 934.234 682.273 938.261 682.273ZM980.243 682.273C984.269 682.273 987.54 685.542 987.54 689.567C987.54 693.593 984.269 696.862 980.243 696.862C976.216 696.862 972.946 693.593 972.946 689.567C972.946 685.542 976.216 682.273 980.243 682.273Z" fill="white"/>
<path d="M728.329 652.339C732.355 652.339 735.626 655.608 735.626 659.633C735.626 663.659 732.355 666.928 728.329 666.928C724.302 666.928 721.032 663.659 721.032 659.633C721.032 655.608 724.302 652.339 728.329 652.339ZM770.311 652.339C774.338 652.339 777.608 655.608 777.608 659.633C777.608 663.659 774.338 666.928 770.311 666.928C766.285 666.928 763.014 663.659 763.014 659.633C763.014 655.608 766.285 652.339 770.311 652.339ZM812.314 652.339C816.34 652.339 819.59 655.608 819.59 659.633C819.59 663.659 816.34 666.928 812.314 666.928C808.287 666.928 805.017 663.659 805.017 659.633C805.017 655.608 808.287 652.339 812.314 652.339ZM854.296 652.339C858.323 652.339 861.593 655.608 861.593 659.633C861.593 663.659 858.323 666.928 854.296 666.928C850.27 666.928 846.999 663.659 846.999 659.633C846.999 655.608 850.27 652.339 854.296 652.339ZM896.258 652.339C900.284 652.339 903.555 655.608 903.555 659.633C903.555 663.659 900.284 666.928 896.258 666.928C892.231 666.928 888.961 663.659 888.961 659.633C888.961 655.608 892.231 652.339 896.258 652.339ZM938.261 652.339C942.287 652.339 945.557 655.608 945.557 659.633C945.557 663.659 942.287 666.928 938.261 666.928C934.234 666.928 930.964 663.659 930.964 659.633C930.964 655.608 934.234 652.339 938.261 652.339Z" fill="white"/>
</g>
<path d="M723.73 501.994C723.73 591.796 796.555 664.578 886.365 664.578C976.176 664.578 1049 591.776 1049 501.994C1049 412.212 976.176 339.41 886.365 339.41C796.555 339.41 723.73 412.212 723.73 501.994Z" fill="url(#paint5_radial_22_8)"/>
<path d="M824.209 501.994C824.209 536.321 852.048 564.13 886.365 564.13C920.683 564.13 948.521 536.301 948.521 501.994C948.521 467.687 920.683 439.858 886.365 439.858C852.048 439.858 824.209 467.687 824.209 501.994Z" fill="url(#paint6_radial_22_8)"/>
<path d="M794 537.608L771.047 556.08L781.859 574.796L809.35 564.151C813.765 569.606 818.732 574.592 824.189 578.985L813.54 606.467L832.262 617.276L850.74 594.33C857.198 596.823 863.984 598.682 871.036 599.786L875.553 628.882H897.178L901.695 599.786C908.746 598.682 915.532 596.843 921.991 594.33L940.468 617.276L959.19 606.467L948.542 578.985C953.999 574.571 958.986 569.606 963.38 564.151L990.871 574.796L1001.68 556.08L978.73 537.608C981.224 531.131 983.084 524.348 984.167 517.319L1013.27 512.803V491.185L984.167 486.669C983.064 479.641 981.224 472.857 978.73 466.38L1001.68 447.908L990.871 429.192L963.38 439.837C958.966 434.382 953.999 429.417 948.542 425.003L959.19 397.521L940.468 386.712L921.991 409.658C915.532 407.165 908.746 405.306 901.695 404.223L897.178 375.106H875.553L871.036 404.223C863.984 405.326 857.219 407.165 850.74 409.658L832.262 386.712L813.54 397.521L824.189 425.003C818.732 429.417 813.745 434.382 809.35 439.837L781.859 429.192L771.047 447.908L794 466.38C791.507 472.836 789.647 479.62 788.563 486.669L759.458 491.185V512.803L788.563 517.319C789.667 524.348 791.507 531.131 794 537.608ZM824.904 501.994C824.904 468.055 852.416 440.553 886.365 440.553C920.315 440.553 947.826 468.055 947.826 501.994C947.826 535.933 920.315 563.436 886.365 563.436C852.416 563.436 824.904 535.933 824.904 501.994Z" fill="#E0E0E0"/>
<path d="M697.322 574.878L650.332 612.679L672.468 650.99L728.738 629.188C737.772 640.345 747.95 650.541 759.131 659.572L737.322 715.844L775.646 737.952L813.458 690.977C826.683 696.085 840.581 699.886 854.991 702.133L864.23 761.695H908.481L917.719 702.133C932.129 699.886 946.028 696.106 959.252 690.977L997.064 737.952L1035.39 715.844L1013.58 659.572C1024.76 650.541 1034.94 640.365 1043.97 629.188L1100.24 650.99L1122.36 612.679L1075.37 574.878C1080.48 561.637 1084.28 547.764 1086.51 533.358L1146.11 524.123V479.886L1086.51 470.65C1084.28 456.245 1080.48 442.351 1075.37 429.131L1122.36 391.33L1100.22 353.018L1043.95 374.82C1034.92 363.664 1024.74 353.468 1013.56 344.437L1035.37 288.185L997.044 266.056L959.231 313.052C945.987 307.944 932.108 304.143 917.699 301.916L908.46 242.354H864.209L854.971 301.916C840.561 304.143 826.683 307.944 813.438 313.052L775.625 266.077L737.302 288.185L759.11 344.457C747.93 353.488 737.751 363.664 728.717 374.841L672.448 353.039L650.312 391.35L697.302 429.151C692.192 442.392 688.39 456.265 686.163 470.691L626.582 479.927V524.164L686.163 533.399C688.411 547.804 692.192 561.699 697.302 574.919L697.322 574.878ZM728.738 501.994C728.738 414.971 799.314 344.416 886.365 344.416C973.416 344.416 1043.99 414.971 1043.99 501.994C1043.99 589.017 973.416 659.572 886.365 659.572C799.314 659.572 728.738 589.017 728.738 501.994Z" fill="#E0E0E0"/>
<path d="M605.55 501.994C605.55 347.195 731.538 221.268 886.365 221.268C1041.19 221.268 1167.18 347.195 1167.18 501.994C1167.18 656.793 1041.21 782.72 886.365 782.72C731.517 782.72 605.55 656.793 605.55 501.994ZM607.328 501.994C607.328 655.812 732.498 780.943 886.365 780.943C1040.23 780.943 1165.4 655.812 1165.4 501.994C1165.4 348.176 1040.23 223.045 886.365 223.045C732.498 223.045 607.328 348.176 607.328 501.994Z" fill="#E0E0E0"/>
<path d="M886.365 175.825C820.673 175.825 759.478 195.338 708.237 228.869V224.598C759.642 191.497 820.796 172.27 886.365 172.27C1043.4 172.27 1175.13 282.546 1208.2 429.682L1204.73 430.5C1172.02 284.936 1041.72 175.846 886.386 175.846L886.365 175.825Z" fill="#E0E0E0"/>
<path d="M610.455 321.532H614.748C580.246 373.247 560.093 435.301 560.093 501.994C560.093 681.844 706.459 828.163 886.365 828.163C1066.27 828.163 1197.72 696.269 1211.49 529.006L1215.23 527.372C1202.23 697.373 1059.69 831.718 886.365 831.718C704.496 831.718 556.516 683.805 556.516 501.974C556.516 435.404 576.363 373.39 610.455 321.511V321.532Z" fill="#E0E0E0"/>
<path d="M1121.79 258.966L1124.32 256.433C1171.33 301.977 1205.34 360.844 1220.2 426.863L1216.73 427.68C1202.01 362.315 1168.35 304.041 1121.81 258.966H1121.79Z" fill="#E0E0E0"/>
<path d="M1224.27 523.449L1227.97 521.834C1222.24 621.363 1173.74 709.612 1100.63 768.479L1098.1 765.945C1170.16 708.059 1218.12 621.322 1224.27 523.449Z" fill="#E0E0E0"/>
<path d="M708.237 194.133C760.664 163.688 821.511 146.238 886.365 146.238C1020.53 146.238 1137.58 220.859 1198.21 330.747L1195.08 332.483C1135.07 223.679 1019.18 149.794 886.345 149.794C821.389 149.794 760.5 167.468 708.217 198.24V194.112L708.237 194.133Z" fill="#E0E0E0"/>
<path d="M886.365 854.194C993.672 854.194 1089.9 805.973 1154.57 730.086L1157.31 732.374C1091.98 809.058 994.755 857.77 886.345 857.77C754.123 857.77 638.519 785.295 577.16 678.023L580.287 676.266C641.033 782.455 755.472 854.194 886.345 854.194H886.365Z" fill="#E0E0E0"/>
<path d="M693.051 278.336C744.435 233.895 811.23 206.801 884.219 206.27V208.048C811.108 208.579 744.271 235.918 693.051 280.707V278.336Z" fill="#E0E0E0"/>
<path d="M696.914 728.962L698.181 727.695C749.218 770.297 814.848 795.961 886.365 795.961C939.753 795.961 989.87 781.658 1033.06 756.689L1034.12 758.14C990.626 783.313 940.141 797.739 886.365 797.739C814.358 797.739 748.277 771.871 696.914 728.962Z" fill="#E0E0E0"/>
<path d="M892.62 183.038H880.111V222.167H892.62V183.038Z" fill="#E0E0E0"/>
<path d="M907.935 183.675L904.524 222.655L916.985 223.744L920.397 184.765L907.935 183.675Z" fill="#E0E0E0"/>
<path d="M935.607 186.788L928.81 225.322L941.129 227.493L947.926 188.959L935.607 186.788Z" fill="#E0E0E0"/>
<path d="M962.877 192.275L952.746 230.07L964.829 233.307L974.959 195.511L962.877 192.275Z" fill="#E0E0E0"/>
<path d="M989.575 200.103L976.188 236.872L987.942 241.148L1001.33 204.379L989.575 200.103Z" fill="#E0E0E0"/>
<path d="M1015.49 210.214L998.948 245.676L1010.29 250.961L1026.83 215.498L1015.49 210.214Z" fill="#E0E0E0"/>
<path d="M1040.54 222.71L1020.97 256.593L1031.8 262.847L1051.37 228.964L1040.54 222.71Z" fill="#E0E0E0"/>
<path d="M1064.22 237.098L1041.77 269.15L1052.02 276.323L1074.47 244.27L1064.22 237.098Z" fill="#E0E0E0"/>
<path d="M1086.66 253.6L1061.5 283.574L1071.08 291.612L1096.24 261.638L1086.66 253.6Z" fill="#E0E0E0"/>
<path d="M1107.54 271.965L1079.86 299.633L1088.71 308.476L1116.39 280.807L1107.54 271.965Z" fill="#E0E0E0"/>
<path d="M1126.75 292.074L1096.76 317.226L1104.81 326.805L1134.79 301.653L1126.75 292.074Z" fill="#E0E0E0"/>
<path d="M1144.16 313.936L1112.1 336.38L1119.28 346.623L1151.34 324.18L1144.16 313.936Z" fill="#E0E0E0"/>
<path d="M1159.58 337.082L1125.68 356.647L1131.94 367.476L1165.83 347.912L1159.58 337.082Z" fill="#E0E0E0"/>
<path d="M1172.9 361.474L1137.43 378.011L1142.71 389.344L1178.19 372.808L1172.9 361.474Z" fill="#E0E0E0"/>
<path d="M1184.06 386.986L1147.28 400.369L1151.56 412.119L1188.34 398.737L1184.06 386.986Z" fill="#E0E0E0"/>
<path d="M1158.42 568.439L1155.18 580.517L1192.99 590.651L1196.23 578.573L1158.42 568.439Z" fill="#E0E0E0"/>
<path d="M1151.54 591.823L1147.26 603.573L1184.04 616.962L1188.32 605.212L1151.54 591.823Z" fill="#E0E0E0"/>
<path d="M1142.77 614.69L1137.48 626.023L1172.95 642.56L1178.24 631.226L1142.77 614.69Z" fill="#E0E0E0"/>
<path d="M1131.92 636.517L1125.66 647.346L1159.56 666.916L1165.81 656.088L1131.92 636.517Z" fill="#E0E0E0"/>
<path d="M1119.28 657.426L1112.1 667.668L1144.16 690.117L1151.34 679.875L1119.28 657.426Z" fill="#E0E0E0"/>
<path d="M1104.81 676.993L1096.77 686.572L1126.76 711.724L1134.8 702.144L1104.81 676.993Z" fill="#E0E0E0"/>
<path d="M1088.72 695.537L1079.88 704.377L1107.55 732.051L1116.4 723.21L1088.72 695.537Z" fill="#E0E0E0"/>
<path d="M1071.1 712.359L1061.52 720.396L1086.67 750.374L1096.25 742.338L1071.1 712.359Z" fill="#E0E0E0"/>
<path d="M1052.06 727.606L1041.82 734.777L1064.26 766.834L1074.51 759.663L1052.06 727.606Z" fill="#E0E0E0"/>
<path d="M1031.74 741.174L1020.91 747.426L1040.48 781.313L1051.31 775.06L1031.74 741.174Z" fill="#E0E0E0"/>
<path d="M1193.32 491.451L1178.89 503.056L1185.68 514.805L1202.95 508.124C1205.73 511.557 1208.86 514.683 1212.27 517.441L1205.59 534.707L1217.34 541.491L1228.95 527.085C1233.02 528.659 1237.27 529.824 1241.7 530.498L1244.54 548.785H1258.12L1260.96 530.498C1265.37 529.803 1269.64 528.638 1273.71 527.085L1285.32 541.491L1297.07 534.707L1290.39 517.441C1293.82 514.683 1296.95 511.557 1299.71 508.124L1316.98 514.805L1323.77 503.056L1309.34 491.451C1310.91 487.385 1312.07 483.135 1312.75 478.701L1331.04 475.86V462.293L1312.75 459.453C1312.05 455.039 1310.89 450.769 1309.34 446.703L1323.77 435.097L1316.98 423.328L1299.71 430.009C1296.93 426.576 1293.8 423.45 1290.39 420.692L1297.07 403.426L1285.32 396.642L1273.71 411.068C1269.64 409.495 1265.39 408.33 1260.96 407.656L1258.12 389.368H1244.54L1241.7 407.656C1237.29 408.33 1233.02 409.515 1228.95 411.068L1217.34 396.642L1205.59 403.426L1212.27 420.692C1208.84 423.471 1205.71 426.597 1202.95 430.009L1185.68 423.328L1178.89 435.077L1193.32 446.682C1191.75 450.748 1190.58 454.999 1189.91 459.432L1171.62 462.273V475.84L1189.91 478.68C1190.6 483.094 1191.77 487.364 1193.32 491.43V491.451ZM1202.95 469.097C1202.95 442.391 1224.62 420.733 1251.33 420.733C1278.04 420.733 1299.71 442.391 1299.71 469.097C1299.71 495.803 1278.06 517.462 1251.33 517.462C1224.59 517.462 1202.95 495.803 1202.95 469.097Z" fill="url(#paint7_linear_22_8)"/>
<path d="M1221.94 469.097C1221.94 485.341 1235.1 498.48 1251.33 498.48C1267.56 498.48 1280.72 485.321 1280.72 469.097C1280.72 452.873 1267.56 439.715 1251.33 439.715C1235.1 439.715 1221.94 452.873 1221.94 469.097Z" fill="url(#paint8_linear_22_8)"/>
<path d="M538.243 367.914C522.996 408.534 514.616 452.526 514.616 498.48C514.616 703.727 681.053 870.112 886.365 870.112C1059.61 870.112 1205.16 751.642 1246.42 591.326L1287.94 602.197C1241.87 780.943 1079.56 913 886.386 913C657.384 913 471.734 727.409 471.734 498.48C471.734 447.234 481.054 398.154 498.08 352.855L538.243 367.914Z" fill="#E0E0E0"/>
<path d="M1277.16 359.68L1236.78 374.146C1185.98 231.116 1050.08 128.4 889.942 126.888V84C1068.68 85.512 1220.42 200.079 1277.16 359.68Z" fill="#C7C7C7"/>
</g>
<defs>
<radialGradient id="paint0_radial_22_8" cx="0" cy="0" r="1" gradientUnits="userSpaceOnUse" gradientTransform="translate(912.365 494.994) rotate(180) scale(162.635 162.584)">
<stop stop-color="white" stop-opacity="0"/>
<stop offset="0.38" stop-color="white" stop-opacity="0"/>
<stop offset="0.47" stop-color="#FDFDFD" stop-opacity="0.01"/>
<stop offset="0.56" stop-color="#F9F9F9" stop-opacity="0.01"/>
<stop offset="0.65" stop-color="#F2F2F2" stop-opacity="0.0361"/>
<stop offset="0.74" stop-color="#E8E8E8" stop-opacity="0.1156"/>
<stop offset="0.83" stop-color="#DCDCDC" stop-opacity="0.2809"/>
<stop offset="0.92" stop-color="#CCCCCC" stop-opacity="0.5776"/>
<stop offset="1" stop-color="#BDBDBD"/>
</radialGradient>
<radialGradient id="paint1_radial_22_8" cx="0" cy="0" r="1" gradientUnits="userSpaceOnUse" gradientTransform="translate(2272.6 494.994) rotate(180) scale(62.1559 62.1362)">
<stop stop-color="white" stop-opacity="0"/>
<stop offset="0.38" stop-color="white" stop-opacity="0"/>
<stop offset="0.47" stop-color="#FDFDFD" stop-opacity="0.01"/>
<stop offset="0.56" stop-color="#F9F9F9" stop-opacity="0.01"/>
<stop offset="0.65" stop-color="#F2F2F2" stop-opacity="0.0361"/>
<stop offset="0.74" stop-color="#E8E8E8" stop-opacity="0.1156"/>
<stop offset="0.83" stop-color="#DCDCDC" stop-opacity="0.2809"/>
<stop offset="0.92" stop-color="#CCCCCC" stop-opacity="0.5776"/>
<stop offset="1" stop-color="#BDBDBD"/>
</radialGradient>
<linearGradient id="paint2_linear_22_8" x1="1357.04" y1="462.097" x2="1197.6" y2="462.097" gradientUnits="userSpaceOnUse">
<stop stop-color="#C7C7C7" stop-opacity="0.88"/>
<stop offset="0.27" stop-color="#CACACA" stop-opacity="0.81"/>
<stop offset="0.68" stop-color="#D5D5D5" stop-opacity="0.9025"/>
<stop offset="1" stop-color="#E0E0E0"/>
</linearGradient>
<linearGradient id="paint3_linear_22_8" x1="1306.72" y1="462.097" x2="1247.92" y2="462.097" gradientUnits="userSpaceOnUse">
<stop stop-color="#C7C7C7" stop-opacity="0.88"/>
<stop offset="0.27" stop-color="#CACACA" stop-opacity="0.81"/>
<stop offset="0.68" stop-color="#D5D5D5" stop-opacity="0.9025"/>
<stop offset="1" stop-color="#E0E0E0"/>
</linearGradient>
<linearGradient id="paint4_linear_22_8" x1="1303.16" y1="222.073" x2="915.942" y2="222.073" gradientUnits="userSpaceOnUse">
<stop stop-color="#C7C7C7" stop-opacity="0.88"/>
<stop offset="0.14" stop-color="#C8C8C8" stop-opacity="0.7225"/>
<stop offset="0.34" stop-color="#CCCCCC" stop-opacity="0.5476"/>
<stop offset="0.59" stop-color="#D2D2D2" stop-opacity="0.3249"/>
<stop offset="0.87" stop-color="#DBDBDB" stop-opacity="0.1089"/>
<stop offset="1" stop-color="#E0E0E0" stop-opacity="0.2"/>
</linearGradient>
<radialGradient id="paint5_radial_22_8" cx="0" cy="0" r="1" gradientUnits="userSpaceOnUse" gradientTransform="translate(886.365 501.994) rotate(180) scale(162.635 162.584)">
<stop stop-color="white" stop-opacity="0"/>
<stop offset="0.38" stop-color="white" stop-opacity="0"/>
<stop offset="0.47" stop-color="#FDFDFD" stop-opacity="0.01"/>
<stop offset="0.56" stop-color="#F9F9F9" stop-opacity="0.01"/>
<stop offset="0.65" stop-color="#F2F2F2" stop-opacity="0.0361"/>
<stop offset="0.74" stop-color="#E8E8E8" stop-opacity="0.1156"/>
<stop offset="0.83" stop-color="#DCDCDC" stop-opacity="0.2809"/>
<stop offset="0.92" stop-color="#CCCCCC" stop-opacity="0.5776"/>
<stop offset="1" stop-color="#BDBDBD"/>
</radialGradient>
<radialGradient id="paint6_radial_22_8" cx="0" cy="0" r="1" gradientUnits="userSpaceOnUse" gradientTransform="translate(2246.6 501.994) rotate(180) scale(62.1559 62.1362)">
<stop stop-color="white" stop-opacity="0"/>
<stop offset="0.38" stop-color="white" stop-opacity="0"/>
<stop offset="0.47" stop-color="#FDFDFD" stop-opacity="0.01"/>
<stop offset="0.56" stop-color="#F9F9F9" stop-opacity="0.01"/>
<stop offset="0.65" stop-color="#F2F2F2" stop-opacity="0.0361"/>
<stop offset="0.74" stop-color="#E8E8E8" stop-opacity="0.1156"/>
<stop offset="0.83" stop-color="#DCDCDC" stop-opacity="0.2809"/>
<stop offset="0.92" stop-color="#CCCCCC" stop-opacity="0.5776"/>
<stop offset="1" stop-color="#BDBDBD"/>
</radialGradient>
<linearGradient id="paint7_linear_22_8" x1="1331.04" y1="469.097" x2="1171.6" y2="469.097" gradientUnits="userSpaceOnUse">
<stop stop-color="#C7C7C7" stop-opacity="0.88"/>
<stop offset="0.27" stop-color="#CACACA" stop-opacity="0.81"/>
<stop offset="0.68" stop-color="#D5D5D5" stop-opacity="0.9025"/>
<stop offset="1" stop-color="#E0E0E0"/>
</linearGradient>
<linearGradient id="paint8_linear_22_8" x1="1280.72" y1="469.097" x2="1221.92" y2="469.097" gradientUnits="userSpaceOnUse">
<stop stop-color="#C7C7C7" stop-opacity="0.88"/>
<stop offset="0.27" stop-color="#CACACA" stop-opacity="0.81"/>
<stop offset="0.68" stop-color="#D5D5D5" stop-opacity="0.9025"/>
<stop offset="1" stop-color="#E0E0E0"/>
</linearGradient>
<clipPath id="clip0_22_8">
<rect width="1440" height="834" fill="white" transform="translate(0 66)"/>
</clipPath>
<clipPath id="clip1_22_8">
<rect width="335" height="331" fill="white" transform="translate(-248 569)"/>
</clipPath>
<clipPath id="clip2_22_8">
<rect width="592" height="834" fill="white" transform="translate(822 73)"/>
</clipPath>
</defs>
</svg>
