<svg width="1440" height="900" viewBox="0 0 1440 900" fill="none" xmlns="http://www.w3.org/2000/svg">
<g opacity="0.25">
<mask id="mask0_22_8" style="mask-type:alpha" maskUnits="userSpaceOnUse" x="3" y="0" width="1440" height="900">
<rect x="3" width="1440" height="900" fill="#F8F9FD"/>
</mask>
<g mask="url(#mask0_22_8)">
</g>
<g clip-path="url(#clip0_22_8)">
<g style="mix-blend-mode:overlay">
<path d="M1127.89 772.369C1127.89 770.449 1128.67 768.569 1130.02 767.2C1131.39 765.851 1133.27 765.075 1135.19 765.075C1137.11 765.075 1139.01 765.851 1140.36 767.2C1143.08 769.918 1143.08 774.821 1140.36 777.539C1138.99 778.888 1137.11 779.664 1135.19 779.664C1133.27 779.664 1131.39 778.867 1130.02 777.539C1128.67 776.17 1127.89 774.29 1127.89 772.369Z" fill="white"/>
<path d="M841.273 765.075C845.34 765.075 848.611 768.344 848.611 772.369C848.611 776.395 845.34 779.664 841.273 779.664C837.246 779.664 833.976 776.395 833.976 772.369C833.976 768.344 837.246 765.075 841.273 765.075ZM883.296 765.075C887.323 765.075 890.593 768.344 890.593 772.369C890.593 776.395 887.323 779.664 883.296 779.664C879.27 779.664 875.999 776.395 875.999 772.369C875.999 768.344 879.27 765.075 883.296 765.075ZM925.258 765.075C929.284 765.075 932.555 768.344 932.555 772.369C932.555 776.395 929.284 779.664 925.258 779.664C921.231 779.664 917.961 776.395 917.961 772.369C917.961 768.344 921.231 765.075 925.258 765.075ZM967.261 765.075C971.287 765.075 974.557 768.344 974.557 772.369C974.557 776.395 971.287 779.664 967.261 779.664C963.234 779.664 959.964 776.395 959.964 772.369C959.964 768.344 963.234 765.075 967.261 765.075ZM1009.24 765.075C1013.27 765.075 1016.54 768.344 1016.54 772.369C1016.54 776.395 1013.27 779.664 1009.24 779.664C1005.22 779.664 1001.95 776.395 1001.95 772.369C1001.95 768.344 1005.22 765.075 1009.24 765.075ZM1051.23 765.075C1055.25 765.075 1058.52 768.344 1058.52 772.369C1058.52 776.395 1055.25 779.664 1051.23 779.664C1047.22 779.664 1043.93 776.395 1043.93 772.369C1043.93 768.344 1047.22 765.075 1051.23 765.075ZM1093.23 765.075C1097.25 765.075 1100.52 768.344 1100.52 772.369C1100.52 776.395 1097.25 779.664 1093.23 779.664C1089.2 779.664 1085.93 776.395 1085.93 772.369C1085.93 768.344 1089.2 765.075 1093.23 765.075Z" fill="white"/>
<path d="M799.311 735.141C803.338 735.141 806.608 738.41 806.608 742.435C806.608 746.461 803.338 749.73 799.311 749.73C795.284 749.73 792.014 746.461 792.014 742.435C792.014 738.41 795.284 735.141 799.311 735.141ZM841.314 735.141C845.34 735.141 848.611 738.41 848.611 742.435C848.611 746.461 845.34 749.73 841.314 749.73C837.287 749.73 834.017 746.461 834.017 742.435C834.017 738.41 837.287 735.141 841.314 735.141ZM883.296 735.141C887.323 735.141 890.593 738.41 890.593 742.435C890.593 746.461 887.323 749.73 883.296 749.73C879.269 749.73 875.999 746.461 875.999 742.435C875.999 738.41 879.269 735.141 883.296 735.141ZM925.258 735.141C929.284 735.141 932.555 738.41 932.555 742.435C932.555 746.461 929.284 749.73 925.258 749.73C921.231 749.73 917.961 746.461 917.961 742.435C917.961 738.41 921.231 735.141 925.258 735.141ZM967.261 735.141C971.287 735.141 974.557 738.41 974.557 742.435C974.557 746.461 971.287 749.73 967.261 749.73C963.234 749.73 959.964 746.461 959.964 742.435C959.964 738.41 963.234 735.141 967.261 735.141ZM1009.24 735.141C1013.27 735.141 1016.54 738.41 1016.54 742.435C1016.54 746.461 1013.27 749.73 1009.24 749.73C1005.22 749.73 1001.95 746.461 1001.95 742.435C1001.95 738.41 1005.22 735.141 1009.24 735.141ZM1051.23 735.141C1055.25 735.141 1058.52 738.41 1058.52 742.435C1058.52 746.461 1055.25 749.73 1051.23 749.73C1047.2 749.73 1043.93 746.461 1043.93 742.435C1043.93 738.41 1047.2 735.141 1051.23 735.141ZM1093.23 735.141C1097.25 735.141 1100.52 738.41 1100.52 742.435C1100.52 746.461 1097.25 749.73 1093.23 749.73C1089.2 749.73 1085.93 746.461 1085.93 742.435C1085.93 738.41 1089.2 735.141 1093.23 735.141Z" fill="white"/>
<path d="M757.329 705.207C761.355 705.207 764.626 708.476 764.626 712.501C764.626 716.527 761.355 719.796 757.329 719.796C753.302 719.796 750.032 716.527 750.032 712.501C750.032 708.476 753.302 705.207 757.329 705.207ZM799.311 705.207C803.338 705.207 806.608 708.476 806.608 712.501C806.608 716.527 803.338 719.796 799.311 719.796C795.285 719.796 792.014 716.527 792.014 712.501C792.014 708.476 795.285 705.207 799.311 705.207ZM841.314 705.207C845.34 705.207 848.59 708.476 848.59 712.501C848.59 716.527 845.34 719.796 841.314 719.796C837.287 719.796 834.017 716.527 834.017 712.501C834.017 708.476 837.287 705.207 841.314 705.207ZM883.296 705.207C887.323 705.207 890.593 708.476 890.593 712.501C890.593 716.527 887.323 719.796 883.296 719.796C879.27 719.796 875.999 716.527 875.999 712.501C875.999 708.476 879.27 705.207 883.296 705.207ZM925.258 705.207C929.284 705.207 932.555 708.476 932.555 712.501C932.555 716.527 929.284 719.796 925.258 719.796C921.231 719.796 917.961 716.527 917.961 712.501C917.961 708.476 921.231 705.207 925.258 705.207ZM967.261 705.207C971.287 705.207 974.557 708.476 974.557 712.501C974.557 716.527 971.287 719.796 967.261 719.796C963.234 719.796 959.964 716.527 959.964 712.501C959.964 708.476 963.234 705.207 967.261 705.207ZM1009.24 705.207C1013.27 705.207 1016.54 708.476 1016.54 712.501C1016.54 716.527 1013.27 719.796 1009.24 719.796C1005.22 719.796 1001.95 716.527 1001.95 712.501C1001.95 708.476 1005.22 705.207 1009.24 705.207ZM1051.23 705.207C1055.29 705.207 1058.52 708.476 1058.52 712.501C1058.52 716.527 1055.27 719.796 1051.23 719.796C1047.2 719.796 1043.93 716.527 1043.93 712.501C1043.93 708.476 1047.2 705.207 1051.23 705.207Z" fill="white"/>
<path d="M757.329 675.273C761.355 675.273 764.626 678.542 764.626 682.567C764.626 686.593 761.355 689.862 757.329 689.862C753.302 689.862 750.032 686.593 750.032 682.567C750.032 678.542 753.302 675.273 757.329 675.273ZM799.311 675.273C803.338 675.273 806.608 678.542 806.608 682.567C806.608 686.593 803.338 689.862 799.311 689.862C795.285 689.862 792.014 686.593 792.014 682.567C792.014 678.542 795.285 675.273 799.311 675.273ZM841.314 675.273C845.34 675.273 848.59 678.542 848.59 682.567C848.59 686.593 845.34 689.862 841.314 689.862C837.287 689.862 834.017 686.593 834.017 682.567C834.017 678.542 837.287 675.273 841.314 675.273ZM883.296 675.273C887.323 675.273 890.593 678.542 890.593 682.567C890.593 686.593 887.323 689.862 883.296 689.862C879.27 689.862 875.999 686.593 875.999 682.567C875.999 678.542 879.27 675.273 883.296 675.273ZM925.258 675.273C929.284 675.273 932.555 678.542 932.555 682.567C932.555 686.593 929.284 689.862 925.258 689.862C921.231 689.862 917.961 686.593 917.961 682.567C917.961 678.542 921.231 675.273 925.258 675.273ZM967.261 675.273C971.287 675.273 974.557 678.542 974.557 682.567C974.557 686.593 971.287 689.862 967.261 689.862C963.234 689.862 959.964 686.593 959.964 682.567C959.964 678.542 963.234 675.273 967.261 675.273ZM1009.24 675.273C1013.27 675.273 1016.54 678.542 1016.54 682.567C1016.54 686.593 1013.27 689.862 1009.24 689.862C1005.22 689.862 1001.95 686.593 1001.95 682.567C1001.95 678.542 1005.22 675.273 1009.24 675.273Z" fill="white"/>
<path d="M708.009 682.588C708.009 680.667 708.806 678.787 710.175 677.418C711.524 676.07 713.425 675.293 715.326 675.293C717.227 675.293 719.148 676.07 720.497 677.418C723.216 680.136 723.216 685.04 720.497 687.757C719.148 689.106 717.247 689.882 715.326 689.882C713.405 689.882 711.524 689.085 710.175 687.757C708.806 686.388 708.009 684.529 708.009 682.588Z" fill="white"/>
<path d="M757.329 645.339C761.355 645.339 764.626 648.608 764.626 652.633C764.626 656.659 761.355 659.928 757.329 659.928C753.302 659.928 750.032 656.659 750.032 652.633C750.032 648.608 753.302 645.339 757.329 645.339ZM799.311 645.339C803.338 645.339 806.608 648.608 806.608 652.633C806.608 656.659 803.338 659.928 799.311 659.928C795.285 659.928 792.014 656.659 792.014 652.633C792.014 648.608 795.285 645.339 799.311 645.339ZM841.314 645.339C845.34 645.339 848.59 648.608 848.59 652.633C848.59 656.659 845.34 659.928 841.314 659.928C837.287 659.928 834.017 656.659 834.017 652.633C834.017 648.608 837.287 645.339 841.314 645.339ZM883.296 645.339C887.323 645.339 890.593 648.608 890.593 652.633C890.593 656.659 887.323 659.928 883.296 659.928C879.27 659.928 875.999 656.659 875.999 652.633C875.999 648.608 879.27 645.339 883.296 645.339ZM925.258 645.339C929.284 645.339 932.555 648.608 932.555 652.633C932.555 656.659 929.284 659.928 925.258 659.928C921.231 659.928 917.961 656.659 917.961 652.633C917.961 648.608 921.231 645.339 925.258 645.339ZM967.261 645.339C971.287 645.339 974.557 648.608 974.557 652.633C974.557 656.659 971.287 659.928 967.261 659.928C963.234 659.928 959.964 656.659 959.964 652.633C959.964 648.608 963.234 645.339 967.261 645.339Z" fill="white"/>
<path d="M708.009 652.654C708.009 650.733 708.806 648.853 710.175 647.484C711.524 646.136 713.425 645.359 715.326 645.359C717.227 645.359 719.148 646.156 720.497 647.484C723.216 650.202 723.216 655.106 720.497 657.823C719.148 659.172 717.247 659.948 715.326 659.948C713.405 659.948 711.524 659.151 710.175 657.823C708.806 656.454 708.009 654.574 708.009 652.654Z" fill="white"/>
</g>
<path d="M752.73 494.994C752.73 584.796 825.555 657.578 915.365 657.578C1005.18 657.578 1078 584.776 1078 494.994C1078 405.212 1005.18 332.41 915.365 332.41C825.555 332.41 752.73 405.212 752.73 494.994Z" fill="url(#paint0_radial_22_8)"/>
<path d="M853.209 494.994C853.209 529.321 881.048 557.13 915.365 557.13C949.683 557.13 977.521 529.301 977.521 494.994C977.521 460.687 949.683 432.858 915.365 432.858C881.048 432.858 853.209 460.687 853.209 494.994Z" fill="url(#paint1_radial_22_8)"/>
<path d="M823 530.608L800.047 549.08L810.859 567.796L838.35 557.151C842.765 562.606 847.732 567.592 853.189 571.985L842.54 599.467L861.262 610.276L879.74 587.33C886.198 589.823 892.984 591.682 900.036 592.786L904.553 621.882H926.178L930.695 592.786C937.746 591.682 944.532 589.843 950.991 587.33L969.468 610.276L988.19 599.467L977.542 571.985C982.999 567.571 987.986 562.606 992.38 557.151L1019.87 567.796L1030.68 549.08L1007.73 530.608C1010.22 524.131 1012.08 517.348 1013.17 510.319L1042.27 505.803V484.185L1013.17 479.669C1012.06 472.641 1010.22 465.857 1007.73 459.38L1030.68 440.908L1019.87 422.192L992.38 432.837C987.966 427.382 982.999 422.417 977.542 418.003L988.19 390.521L969.468 379.712L950.991 402.658C944.532 400.165 937.746 398.306 930.695 397.223L926.178 368.106H904.553L900.036 397.223C892.984 398.326 886.219 400.165 879.74 402.658L861.262 379.712L842.54 390.521L853.189 418.003C847.732 422.417 842.745 427.382 838.35 432.837L810.859 422.192L800.047 440.908L823 459.38C820.507 465.836 818.647 472.62 817.563 479.669L788.458 484.185V505.803L817.563 510.319C818.667 517.348 820.507 524.131 823 530.608ZM853.904 494.994C853.904 461.055 881.416 433.553 915.365 433.553C949.315 433.553 976.826 461.055 976.826 494.994C976.826 528.933 949.315 556.436 915.365 556.436C881.416 556.436 853.904 528.933 853.904 494.994Z" fill="#E0E0E0"/>
<path d="M726.322 567.878L679.332 605.679L701.468 643.99L757.738 622.188C766.772 633.345 776.95 643.541 788.131 652.572L766.322 708.844L804.646 730.952L842.458 683.977C855.683 689.085 869.581 692.886 883.991 695.133L893.23 754.695H937.481L946.719 695.133C961.129 692.886 975.028 689.106 988.252 683.977L1026.06 730.952L1064.39 708.844L1042.58 652.572C1053.76 643.541 1063.94 633.365 1072.97 622.188L1129.24 643.99L1151.36 605.679L1104.37 567.878C1109.48 554.637 1113.28 540.764 1115.51 526.358L1175.11 517.123V472.886L1115.51 463.65C1113.28 449.245 1109.48 435.351 1104.37 422.131L1151.36 384.33L1129.22 346.018L1072.95 367.82C1063.92 356.664 1053.74 346.468 1042.56 337.437L1064.37 281.185L1026.04 259.056L988.231 306.052C974.987 300.944 961.108 297.143 946.699 294.916L937.46 235.354H893.209L883.971 294.916C869.561 297.143 855.683 300.944 842.438 306.052L804.625 259.077L766.302 281.185L788.11 337.457C776.93 346.488 766.751 356.664 757.717 367.841L701.448 346.039L679.312 384.35L726.302 422.151C721.192 435.392 717.39 449.265 715.163 463.691L655.582 472.927V517.164L715.163 526.399C717.411 540.804 721.192 554.699 726.302 567.919L726.322 567.878ZM757.738 494.994C757.738 407.971 828.314 337.416 915.365 337.416C1002.42 337.416 1072.99 407.971 1072.99 494.994C1072.99 582.017 1002.42 652.572 915.365 652.572C828.314 652.572 757.738 582.017 757.738 494.994Z" fill="#E0E0E0"/>
<path d="M634.55 494.994C634.55 340.195 760.538 214.268 915.365 214.268C1070.19 214.268 1196.18 340.195 1196.18 494.994C1196.18 649.793 1070.21 775.72 915.365 775.72C760.517 775.72 634.55 649.793 634.55 494.994ZM636.328 494.994C636.328 648.812 761.498 773.943 915.365 773.943C1069.23 773.943 1194.4 648.812 1194.4 494.994C1194.4 341.176 1069.23 216.045 915.365 216.045C761.498 216.045 636.328 341.176 636.328 494.994Z" fill="#E0E0E0"/>
<path d="M915.365 168.825C849.673 168.825 788.478 188.338 737.237 221.869V217.598C788.642 184.497 849.796 165.27 915.365 165.27C1072.4 165.27 1204.13 275.546 1237.2 422.682L1233.73 423.5C1201.02 277.936 1070.72 168.846 915.386 168.846L915.365 168.825Z" fill="#E0E0E0"/>
<path d="M639.455 314.532H643.748C609.246 366.247 589.093 428.301 589.093 494.994C589.093 674.844 735.459 821.163 915.365 821.163C1095.27 821.163 1226.72 689.269 1240.49 522.006L1244.23 520.372C1231.23 690.373 1088.69 824.718 915.365 824.718C733.496 824.718 585.516 676.805 585.516 494.974C585.516 428.404 605.363 366.39 639.455 314.511V314.532Z" fill="#E0E0E0"/>
<path d="M1150.78 251.966L1153.32 249.433C1200.33 294.977 1234.34 353.844 1249.2 419.863L1245.73 420.68C1231.01 355.315 1197.35 297.041 1150.81 251.966H1150.78Z" fill="#E0E0E0"/>
<path d="M1253.27 516.449L1256.97 514.834C1251.24 614.363 1202.74 702.612 1129.63 761.479L1127.1 758.945C1199.16 701.059 1247.12 614.322 1253.27 516.449Z" fill="#E0E0E0"/>
<path d="M624.841 314.531H629.072C595.981 366.799 576.768 428.69 576.768 494.994C576.768 586.37 613.191 669.388 672.26 730.339L669.726 732.873C610.002 671.268 573.191 587.35 573.191 494.994C573.191 428.792 592.138 366.962 624.841 314.531Z" fill="#E0E0E0"/>
<path d="M737.237 187.133C789.664 156.688 850.511 139.238 915.365 139.238C1049.53 139.238 1166.58 213.859 1227.21 323.747L1224.08 325.483C1164.07 216.679 1048.18 142.794 915.345 142.794C850.389 142.794 789.5 160.468 737.216 191.24V187.112L737.237 187.133Z" fill="#E0E0E0"/>
<path d="M915.365 847.195C1022.67 847.195 1118.9 798.973 1183.57 723.086L1186.31 725.374C1120.98 802.058 1023.75 850.77 915.345 850.77C783.123 850.77 667.518 778.295 606.16 671.023L609.287 669.266C670.032 775.455 784.472 847.195 915.345 847.195H915.365Z" fill="#E0E0E0"/>
<path d="M722.051 271.336C773.435 226.895 840.23 199.801 913.219 199.27V201.048C840.108 201.579 773.271 228.918 722.051 273.707V271.336Z" fill="#E0E0E0"/>
<path d="M690.451 303.232H692.802C664.064 336.497 642.623 376.198 631.055 419.924H629.195C640.661 376.279 661.939 336.578 690.451 303.232Z" fill="#E0E0E0"/>
<path d="M725.914 721.962L727.181 720.695C778.218 763.297 843.848 788.961 915.365 788.961C968.753 788.961 1018.87 774.658 1062.06 749.689L1063.12 751.14C1019.63 776.313 969.141 790.739 915.365 790.739C843.358 790.739 777.277 764.871 725.914 721.962Z" fill="#E0E0E0"/>
<path d="M921.62 176.038H909.111V215.167H921.62V176.038Z" fill="#E0E0E0"/>
<path d="M936.935 176.675L933.524 215.655L945.985 216.745L949.397 177.765L936.935 176.675Z" fill="#E0E0E0"/>
<path d="M964.607 179.788L957.81 218.322L970.129 220.494L976.926 181.959L964.607 179.788Z" fill="#E0E0E0"/>
<path d="M991.877 185.275L981.746 223.07L993.829 226.307L1003.96 188.511L991.877 185.275Z" fill="#E0E0E0"/>
<path d="M1018.57 193.103L1005.19 229.872L1016.94 234.149L1030.33 197.379L1018.57 193.103Z" fill="#E0E0E0"/>
<path d="M1044.49 203.214L1027.95 238.676L1039.29 243.961L1055.83 208.498L1044.49 203.214Z" fill="#E0E0E0"/>
<path d="M1069.54 215.71L1049.97 249.593L1060.8 255.847L1080.37 221.964L1069.54 215.71Z" fill="#E0E0E0"/>
<path d="M1093.22 230.098L1070.77 262.15L1081.02 269.323L1103.47 237.27L1093.22 230.098Z" fill="#E0E0E0"/>
<path d="M1115.66 246.6L1090.5 276.574L1100.08 284.612L1125.24 254.638L1115.66 246.6Z" fill="#E0E0E0"/>
<path d="M730.628 705.318L705.481 735.277L715.064 743.315L740.21 713.356L730.628 705.318Z" fill="#E0E0E0"/>
<path d="M1136.54 264.965L1108.86 292.633L1117.71 301.476L1145.39 273.807L1136.54 264.965Z" fill="#E0E0E0"/>
<path d="M713.003 688.456L685.341 716.11L694.186 724.952L721.848 697.299L713.003 688.456Z" fill="#E0E0E0"/>
<path d="M1155.75 285.074L1125.76 310.226L1133.81 319.805L1163.79 294.653L1155.75 285.074Z" fill="#E0E0E0"/>
<path d="M696.91 670.137L666.926 695.288L674.967 704.868L704.951 679.716L696.91 670.137Z" fill="#E0E0E0"/>
<path d="M1173.16 306.936L1141.1 329.38L1148.28 339.623L1180.34 317.18L1173.16 306.936Z" fill="#E0E0E0"/>
<path d="M682.475 650.391L650.429 672.822L657.604 683.066L689.649 660.634L682.475 650.391Z" fill="#E0E0E0"/>
<path d="M1188.58 330.082L1154.68 349.647L1160.94 360.476L1194.83 340.912L1188.58 330.082Z" fill="#E0E0E0"/>
<path d="M669.809 629.533L635.929 649.087L642.184 659.916L676.063 640.362L669.809 629.533Z" fill="#E0E0E0"/>
<path d="M1201.9 354.474L1166.43 371.011L1171.71 382.344L1207.19 365.808L1201.9 354.474Z" fill="#E0E0E0"/>
<path d="M658.986 607.633L623.531 624.161L628.817 635.494L664.273 618.966L658.986 607.633Z" fill="#E0E0E0"/>
<path d="M1213.06 379.986L1176.28 393.369L1180.56 405.119L1217.34 391.737L1213.06 379.986Z" fill="#E0E0E0"/>
<path d="M650.202 584.813L613.441 598.189L617.719 609.94L654.48 596.564L650.202 584.813Z" fill="#E0E0E0"/>
<path d="M643.376 561.351L605.588 571.473L608.825 583.552L646.613 573.43L643.376 561.351Z" fill="#E0E0E0"/>
<path d="M638.604 537.411L600.077 544.202L602.25 556.517L640.776 549.726L638.604 537.411Z" fill="#E0E0E0"/>
<path d="M602.234 433.404L600.06 445.719L638.585 452.516L640.759 440.202L602.234 433.404Z" fill="#E0E0E0"/>
<path d="M1187.42 561.439L1184.18 573.517L1221.99 583.651L1225.23 571.573L1187.42 561.439Z" fill="#E0E0E0"/>
<path d="M608.838 406.415L605.598 418.494L643.384 428.622L646.624 416.544L608.838 406.415Z" fill="#E0E0E0"/>
<path d="M1180.54 584.823L1176.26 596.573L1213.04 609.962L1217.32 598.212L1180.54 584.823Z" fill="#E0E0E0"/>
<path d="M1171.77 607.69L1166.48 619.023L1201.95 635.56L1207.24 624.226L1171.77 607.69Z" fill="#E0E0E0"/>
<path d="M1160.92 629.517L1154.66 640.346L1188.56 659.916L1194.81 649.088L1160.92 629.517Z" fill="#E0E0E0"/>
<path d="M1148.28 650.426L1141.1 660.668L1173.16 683.117L1180.34 672.875L1148.28 650.426Z" fill="#E0E0E0"/>
<path d="M1133.81 669.993L1125.77 679.572L1155.76 704.724L1163.8 695.144L1133.81 669.993Z" fill="#E0E0E0"/>
<path d="M1117.72 688.537L1108.88 697.378L1136.55 725.051L1145.4 716.21L1117.72 688.537Z" fill="#E0E0E0"/>
<path d="M1100.1 705.359L1090.52 713.396L1115.67 743.374L1125.25 735.338L1100.1 705.359Z" fill="#E0E0E0"/>
<path d="M1081.06 720.606L1070.82 727.777L1093.26 759.834L1103.51 752.663L1081.06 720.606Z" fill="#E0E0E0"/>
<path d="M1060.74 734.174L1049.91 740.426L1069.48 774.313L1080.31 768.06L1060.74 734.174Z" fill="#E0E0E0"/>
<path opacity="0.5" d="M565.404 270.049L543.268 287.846L553.692 305.888L580.202 295.611C584.453 300.862 589.256 305.664 594.509 309.914L584.228 336.415L602.276 346.836L620.079 324.707C626.313 327.118 632.853 328.896 639.639 329.958L643.993 358.012H664.841L669.195 329.958C675.98 328.896 682.521 327.118 688.755 324.707L706.557 346.836L724.605 336.415L714.324 309.914C719.577 305.664 724.381 300.862 728.632 295.611L755.142 305.888L765.566 287.846L743.43 270.049C745.842 263.817 747.62 257.279 748.683 250.495L776.746 246.143V225.301L748.683 220.949C747.62 214.165 745.842 207.627 743.43 201.395L765.566 183.598L755.142 165.556L728.632 175.834C724.381 170.562 719.577 165.781 714.324 161.531L724.585 135.029L706.537 124.608L688.734 146.737C682.5 144.326 675.96 142.548 669.174 141.486L664.821 113.432H643.972L639.619 141.486C632.833 142.548 626.292 144.326 620.058 146.737L602.256 124.608L584.208 135.029L594.489 161.531C589.216 165.781 584.433 170.582 580.181 175.834L553.672 165.556L543.248 183.598L565.383 201.395C562.972 207.627 561.193 214.165 560.131 220.949L532.067 225.301V246.143L560.131 250.495C561.193 257.279 562.972 263.817 565.383 270.049H565.404ZM580.202 235.702C580.202 194.713 613.436 161.469 654.458 161.469C695.479 161.469 728.714 194.693 728.714 235.702C728.714 276.71 695.479 309.934 654.458 309.934C613.436 309.934 580.202 276.71 580.202 235.702Z" fill="#C7C7C7"/>
<path d="M1222.32 484.451L1207.89 496.056L1214.68 507.805L1231.95 501.124C1234.73 504.557 1237.86 507.683 1241.27 510.441L1234.59 527.707L1246.34 534.491L1257.95 520.085C1262.02 521.659 1266.27 522.824 1270.7 523.498L1273.54 541.785H1287.12L1289.96 523.498C1294.37 522.803 1298.64 521.638 1302.71 520.085L1314.32 534.491L1326.07 527.707L1319.39 510.441C1322.82 507.683 1325.95 504.557 1328.71 501.124L1345.98 507.805L1352.77 496.056L1338.34 484.451C1339.91 480.385 1341.07 476.135 1341.75 471.701L1360.04 468.86V455.293L1341.75 452.453C1341.05 448.039 1339.89 443.769 1338.34 439.703L1352.77 428.097L1345.98 416.328L1328.71 423.009C1325.93 419.576 1322.8 416.45 1319.39 413.692L1326.07 396.426L1314.32 389.642L1302.71 404.068C1298.64 402.495 1294.39 401.33 1289.96 400.656L1287.12 382.368H1273.54L1270.7 400.656C1266.29 401.33 1262.02 402.515 1257.95 404.068L1246.34 389.642L1234.59 396.426L1241.27 413.692C1237.84 416.471 1234.71 419.597 1231.95 423.009L1214.68 416.328L1207.89 428.077L1222.32 439.682C1220.75 443.748 1219.58 447.999 1218.91 452.432L1200.62 455.273V468.84L1218.91 471.68C1219.6 476.094 1220.77 480.364 1222.32 484.43V484.451ZM1231.95 462.097C1231.95 435.391 1253.62 413.733 1280.33 413.733C1307.04 413.733 1328.71 435.391 1328.71 462.097C1328.71 488.803 1307.06 510.462 1280.33 510.462C1253.59 510.462 1231.95 488.803 1231.95 462.097Z" fill="url(#paint2_linear_22_8)"/>
<path d="M1250.94 462.097C1250.94 478.341 1264.1 491.48 1280.33 491.48C1296.56 491.48 1309.72 478.321 1309.72 462.097C1309.72 445.873 1296.56 432.715 1280.33 432.715C1264.1 432.715 1250.94 445.873 1250.94 462.097Z" fill="url(#paint3_linear_22_8)"/>
<path d="M567.243 360.914C551.996 401.534 543.616 445.526 543.616 491.48C543.616 696.727 710.053 863.112 915.365 863.112C1088.61 863.112 1234.16 744.642 1275.42 584.326L1316.94 595.197C1270.87 773.943 1108.56 906 915.386 906C686.384 906 500.734 720.409 500.734 491.48C500.734 440.234 510.054 391.154 527.08 345.855L567.243 360.914Z" fill="#E0E0E0"/>
<path d="M1306.16 352.68L1265.78 367.146C1214.98 224.116 1079.08 121.4 918.942 119.888V77C1097.68 78.512 1249.42 193.079 1306.16 352.68Z" fill="url(#paint4_linear_22_8)"/>
<path d="M1357.65 632.221L1412.41 686.96H1595.16V688.758H1411.67L1356.91 634.019H1225.74L1224.37 632.221H1357.65Z" fill="#BABABA"/>
<path d="M1357.65 614.363L1412.41 669.102H1543.34V670.88H1411.67L1356.91 616.14H1210.69L1209 614.363H1357.65Z" fill="#BABABA"/>
<path d="M1357.65 596.484L1412.41 651.244H1501.62V653.021H1411.67L1356.91 598.282H1193.69L1191.58 596.484H1357.65Z" fill="#BABABA"/>
<path d="M1357.65 578.625L1412.41 633.365H1467.08V635.163H1411.67L1356.91 580.403H1174.23L1172.12 578.625H1357.65Z" fill="#BABABA"/>
</g>
<g clip-path="url(#clip1_22_8)">
<path d="M-199.396 909.481L-229.693 933.879L-215.417 958.593L-179.127 944.522C-173.303 951.736 -166.743 958.299 -159.531 964.125L-173.597 1000.43L-148.892 1014.71L-124.503 984.401C-115.966 987.703 -107.009 990.143 -97.716 991.594L-91.7448 1030.02H-63.2131L-57.2419 991.594C-47.9486 990.143 -38.9917 987.703 -30.4553 984.401L-6.0657 1014.71L18.6393 1000.43L4.57323 964.125C11.785 958.299 18.345 951.736 24.169 944.522L60.4591 958.593L74.7144 933.879L44.4166 909.481C47.7176 900.942 50.1566 891.982 51.6074 882.685L90.021 876.733V848.191L51.6074 842.218C50.1566 832.921 47.7176 823.961 44.4166 815.422L74.7144 791.024L60.4381 766.31L24.148 780.381C18.3239 773.167 11.764 766.604 4.5522 760.778L18.6183 724.475L-6.08673 710.194L-30.4553 740.503C-38.9917 737.2 -47.9486 734.761 -57.2419 733.309L-63.2131 694.882H-91.7448L-97.716 733.309C-107.009 734.761 -115.966 737.2 -124.503 740.503L-148.892 710.194L-173.597 724.454L-159.531 760.757C-166.743 766.583 -173.303 773.146 -179.127 780.36L-215.417 766.289L-229.693 791.003L-199.396 815.401C-202.697 823.94 -205.136 832.9 -206.586 842.197L-245 848.17V876.712L-206.586 882.664C-205.136 891.961 -202.697 900.921 -199.396 909.46V909.481ZM-179.127 862.452C-179.127 806.294 -133.628 760.778 -77.4895 760.778C-21.3513 760.778 24.148 806.294 24.148 862.452C24.148 918.61 -21.3513 964.125 -77.4895 964.125C-133.628 964.125 -179.127 918.61 -179.127 862.452Z" fill="#E0E0E0"/>
<path d="M-78.1203 667.666L-92.0603 678.876L-85.5003 690.234L-68.827 683.777C-66.1568 687.079 -63.1291 690.108 -59.8071 692.779L-66.2619 709.479L-54.9081 716.041L-43.7015 702.096C-39.7697 703.611 -35.6698 704.747 -31.3806 705.399L-28.6472 723.066H-15.5273L-12.794 705.399C-8.52578 704.726 -4.40477 703.611 -0.473 702.096L10.7336 716.041L22.0874 709.479L15.6326 692.779C18.9546 690.108 21.9613 687.079 24.6315 683.777L41.3047 690.234L47.8647 678.876L33.9248 667.666C35.4386 663.732 36.574 659.631 37.2258 655.34L54.8873 652.606V639.481L37.2258 636.747C36.553 632.477 35.4386 628.355 33.9248 624.422L47.8647 613.211L41.3047 601.853L24.6315 608.311C21.9613 605.008 18.9336 601.98 15.6326 599.308L22.0874 582.608L10.7336 576.046L-0.473 589.991C-4.40477 588.477 -8.52578 587.341 -12.794 586.689L-15.5273 569.021H-28.6472L-31.3806 586.689C-35.6487 587.341 -39.7697 588.477 -43.7015 589.991L-54.9081 576.067L-66.2619 582.629L-59.7861 599.33C-63.1081 602.001 -66.1147 605.029 -68.806 608.332L-85.4793 601.875L-92.0392 613.232L-78.0993 624.443C-79.6132 628.376 -80.7485 632.498 -81.4003 636.768L-99.0618 639.502V652.627L-81.4003 655.361C-80.7275 659.631 -79.6132 663.753 -78.0993 667.687L-78.1203 667.666ZM-68.806 646.044C-68.806 620.236 -47.8856 599.308 -22.0873 599.308C3.71107 599.308 24.6315 620.236 24.6315 646.044C24.6315 671.851 3.71107 692.779 -22.0873 692.779C-47.8856 692.779 -68.806 671.851 -68.806 646.044Z" fill="#E0E0E0"/>
</g>
</g>
<defs>
<radialGradient id="paint0_radial_22_8" cx="0" cy="0" r="1" gradientUnits="userSpaceOnUse" gradientTransform="translate(915.365 494.994) rotate(180) scale(162.635 162.584)">
<stop stop-color="white" stop-opacity="0"/>
<stop offset="0.38" stop-color="white" stop-opacity="0"/>
<stop offset="0.47" stop-color="#FDFDFD" stop-opacity="0.01"/>
<stop offset="0.56" stop-color="#F9F9F9" stop-opacity="0.01"/>
<stop offset="0.65" stop-color="#F2F2F2" stop-opacity="0.0361"/>
<stop offset="0.74" stop-color="#E8E8E8" stop-opacity="0.1156"/>
<stop offset="0.83" stop-color="#DCDCDC" stop-opacity="0.2809"/>
<stop offset="0.92" stop-color="#CCCCCC" stop-opacity="0.5776"/>
<stop offset="1" stop-color="#BDBDBD"/>
</radialGradient>
<radialGradient id="paint1_radial_22_8" cx="0" cy="0" r="1" gradientUnits="userSpaceOnUse" gradientTransform="translate(2275.6 494.994) rotate(180) scale(62.1559 62.1362)">
<stop stop-color="white" stop-opacity="0"/>
<stop offset="0.38" stop-color="white" stop-opacity="0"/>
<stop offset="0.47" stop-color="#FDFDFD" stop-opacity="0.01"/>
<stop offset="0.56" stop-color="#F9F9F9" stop-opacity="0.01"/>
<stop offset="0.65" stop-color="#F2F2F2" stop-opacity="0.0361"/>
<stop offset="0.74" stop-color="#E8E8E8" stop-opacity="0.1156"/>
<stop offset="0.83" stop-color="#DCDCDC" stop-opacity="0.2809"/>
<stop offset="0.92" stop-color="#CCCCCC" stop-opacity="0.5776"/>
<stop offset="1" stop-color="#BDBDBD"/>
</radialGradient>
<linearGradient id="paint2_linear_22_8" x1="1360.04" y1="462.097" x2="1200.6" y2="462.097" gradientUnits="userSpaceOnUse">
<stop stop-color="#C7C7C7" stop-opacity="0.88"/>
<stop offset="0.27" stop-color="#CACACA" stop-opacity="0.81"/>
<stop offset="0.68" stop-color="#D5D5D5" stop-opacity="0.9025"/>
<stop offset="1" stop-color="#E0E0E0"/>
</linearGradient>
<linearGradient id="paint3_linear_22_8" x1="1309.72" y1="462.097" x2="1250.92" y2="462.097" gradientUnits="userSpaceOnUse">
<stop stop-color="#C7C7C7" stop-opacity="0.88"/>
<stop offset="0.27" stop-color="#CACACA" stop-opacity="0.81"/>
<stop offset="0.68" stop-color="#D5D5D5" stop-opacity="0.9025"/>
<stop offset="1" stop-color="#E0E0E0"/>
</linearGradient>
<linearGradient id="paint4_linear_22_8" x1="1306.16" y1="222.073" x2="918.942" y2="222.073" gradientUnits="userSpaceOnUse">
<stop stop-color="#C7C7C7" stop-opacity="0.88"/>
<stop offset="0.14" stop-color="#C8C8C8" stop-opacity="0.7225"/>
<stop offset="0.34" stop-color="#CCCCCC" stop-opacity="0.5476"/>
<stop offset="0.59" stop-color="#D2D2D2" stop-opacity="0.3249"/>
<stop offset="0.87" stop-color="#DBDBDB" stop-opacity="0.1089"/>
<stop offset="1" stop-color="#E0E0E0" stop-opacity="0.2"/>
</linearGradient>
<clipPath id="clip0_22_8">
<rect width="1440" height="834" fill="white" transform="translate(3 66)"/>
</clipPath>
<clipPath id="clip1_22_8">
<rect width="335" height="331" fill="white" transform="translate(-245 569)"/>
</clipPath>
</defs>
</svg>
