<svg width="720" height="604" viewBox="0 0 720 604" fill="none" xmlns="http://www.w3.org/2000/svg">
<rect width="720" height="604" fill="#202743"/>
<g opacity="0.5">
<mask id="mask0_35_8" style="mask-type:alpha" maskUnits="userSpaceOnUse" x="0" y="0" width="720" height="604">
<rect width="720" height="604" fill="#202743"/>
</mask>
<g mask="url(#mask0_35_8)">
</g>
<g opacity="0.1" clip-path="url(#clip0_35_8)">
<g style="mix-blend-mode:overlay">
<path d="M-51.689 590.141C-47.6625 590.141 -44.3922 593.41 -44.3922 597.436C-44.3922 601.461 -47.6625 604.73 -51.689 604.73C-55.7155 604.73 -58.9858 601.461 -58.9858 597.436C-58.9858 593.41 -55.7155 590.141 -51.689 590.141ZM-9.68624 590.141C-5.65971 590.141 -2.38947 593.41 -2.38947 597.436C-2.38947 601.461 -5.65971 604.73 -9.68624 604.73C-13.7128 604.73 -16.9831 601.461 -16.9831 597.436C-16.9831 593.41 -13.7128 590.141 -9.68624 590.141ZM32.296 590.141C36.3225 590.141 39.5928 593.41 39.5928 597.436C39.5928 601.461 36.3225 604.73 32.296 604.73C28.2694 604.73 24.9992 601.461 24.9992 597.436C24.9992 593.41 28.2694 590.141 32.296 590.141ZM74.2578 590.141C78.2844 590.141 81.5547 593.41 81.5547 597.436C81.5547 601.461 78.2844 604.73 74.2578 604.73C70.2313 604.73 66.9611 601.461 66.9611 597.436C66.9611 593.41 70.2313 590.141 74.2578 590.141ZM116.261 590.141C120.287 590.141 123.557 593.41 123.557 597.436C123.557 601.461 120.287 604.73 116.261 604.73C112.234 604.73 108.964 601.461 108.964 597.436C108.964 593.41 112.234 590.141 116.261 590.141ZM158.243 590.141C162.269 590.141 165.54 593.41 165.54 597.436C165.54 601.461 162.269 604.73 158.243 604.73C154.216 604.73 150.946 601.461 150.946 597.436C150.946 593.41 154.216 590.141 158.243 590.141ZM200.225 590.141C204.252 590.141 207.522 593.41 207.522 597.436C207.522 601.461 204.252 604.73 200.225 604.73C196.199 604.73 192.928 601.461 192.928 597.436C192.928 593.41 196.199 590.141 200.225 590.141ZM242.228 590.141C246.254 590.141 249.525 593.41 249.525 597.436C249.525 601.461 246.254 604.73 242.228 604.73C238.201 604.73 234.931 601.461 234.931 597.436C234.931 593.41 238.201 590.141 242.228 590.141Z" fill="white"/>
<path d="M-93.6712 560.207C-89.6447 560.207 -86.3744 563.476 -86.3744 567.502C-86.3744 571.527 -89.6447 574.796 -93.6712 574.796C-97.6978 574.796 -100.968 571.527 -100.968 567.502C-100.968 563.476 -97.6978 560.207 -93.6712 560.207ZM-51.6889 560.207C-47.6624 560.207 -44.3921 563.476 -44.3921 567.502C-44.3921 571.527 -47.6624 574.796 -51.6889 574.796C-55.7155 574.796 -58.9858 571.527 -58.9858 567.502C-58.9858 563.476 -55.7155 560.207 -51.6889 560.207ZM-9.68618 560.207C-5.65964 560.207 -2.4098 563.476 -2.4098 567.502C-2.4098 571.527 -5.65964 574.796 -9.68618 574.796C-13.7127 574.796 -16.983 571.527 -16.983 567.502C-16.983 563.476 -13.7127 560.207 -9.68618 560.207ZM32.2961 560.207C36.3226 560.207 39.5929 563.476 39.5929 567.502C39.5929 571.527 36.3226 574.796 32.2961 574.796C28.2695 574.796 24.9993 571.527 24.9993 567.502C24.9993 563.476 28.2695 560.207 32.2961 560.207ZM74.2579 560.207C78.2844 560.207 81.5547 563.476 81.5547 567.502C81.5547 571.527 78.2844 574.796 74.2579 574.796C70.2314 574.796 66.9611 571.527 66.9611 567.502C66.9611 563.476 70.2314 560.207 74.2579 560.207ZM116.261 560.207C120.287 560.207 123.557 563.476 123.557 567.502C123.557 571.527 120.287 574.796 116.261 574.796C112.234 574.796 108.964 571.527 108.964 567.502C108.964 563.476 112.234 560.207 116.261 560.207ZM158.243 560.207C162.269 560.207 165.54 563.476 165.54 567.502C165.54 571.527 162.269 574.796 158.243 574.796C154.216 574.796 150.946 571.527 150.946 567.502C150.946 563.476 154.216 560.207 158.243 560.207ZM200.225 560.207C204.293 560.207 207.522 563.476 207.522 567.502C207.522 571.527 204.272 574.796 200.225 574.796C196.199 574.796 192.928 571.527 192.928 567.502C192.928 563.476 196.199 560.207 200.225 560.207Z" fill="white"/>
<path d="M-93.6712 530.273C-89.6447 530.273 -86.3744 533.542 -86.3744 537.567C-86.3744 541.593 -89.6447 544.862 -93.6712 544.862C-97.6978 544.862 -100.968 541.593 -100.968 537.567C-100.968 533.542 -97.6978 530.273 -93.6712 530.273ZM-51.6889 530.273C-47.6624 530.273 -44.3921 533.542 -44.3921 537.567C-44.3921 541.593 -47.6624 544.862 -51.6889 544.862C-55.7155 544.862 -58.9858 541.593 -58.9858 537.567C-58.9858 533.542 -55.7155 530.273 -51.6889 530.273ZM-9.68618 530.273C-5.65964 530.273 -2.4098 533.542 -2.4098 537.567C-2.4098 541.593 -5.65964 544.862 -9.68618 544.862C-13.7127 544.862 -16.983 541.593 -16.983 537.567C-16.983 533.542 -13.7127 530.273 -9.68618 530.273ZM32.2961 530.273C36.3226 530.273 39.5929 533.542 39.5929 537.567C39.5929 541.593 36.3226 544.862 32.2961 544.862C28.2695 544.862 24.9993 541.593 24.9993 537.567C24.9993 533.542 28.2695 530.273 32.2961 530.273ZM74.2579 530.273C78.2844 530.273 81.5547 533.542 81.5547 537.567C81.5547 541.593 78.2844 544.862 74.2579 544.862C70.2314 544.862 66.9611 541.593 66.9611 537.567C66.9611 533.542 70.2314 530.273 74.2579 530.273ZM116.261 530.273C120.287 530.273 123.557 533.542 123.557 537.567C123.557 541.593 120.287 544.862 116.261 544.862C112.234 544.862 108.964 541.593 108.964 537.567C108.964 533.542 112.234 530.273 116.261 530.273ZM158.243 530.273C162.269 530.273 165.54 533.542 165.54 537.567C165.54 541.593 162.269 544.862 158.243 544.862C154.216 544.862 150.946 541.593 150.946 537.567C150.946 533.542 154.216 530.273 158.243 530.273Z" fill="white"/>
<path d="M-93.6712 500.339C-89.6447 500.339 -86.3744 503.608 -86.3744 507.633C-86.3744 511.659 -89.6447 514.928 -93.6712 514.928C-97.6978 514.928 -100.968 511.659 -100.968 507.633C-100.968 503.608 -97.6978 500.339 -93.6712 500.339ZM-51.6889 500.339C-47.6624 500.339 -44.3921 503.608 -44.3921 507.633C-44.3921 511.659 -47.6624 514.928 -51.6889 514.928C-55.7155 514.928 -58.9858 511.659 -58.9858 507.633C-58.9858 503.608 -55.7155 500.339 -51.6889 500.339ZM-9.68618 500.339C-5.65964 500.339 -2.4098 503.608 -2.4098 507.633C-2.4098 511.659 -5.65964 514.928 -9.68618 514.928C-13.7127 514.928 -16.983 511.659 -16.983 507.633C-16.983 503.608 -13.7127 500.339 -9.68618 500.339ZM32.2961 500.339C36.3226 500.339 39.5929 503.608 39.5929 507.633C39.5929 511.659 36.3226 514.928 32.2961 514.928C28.2695 514.928 24.9993 511.659 24.9993 507.633C24.9993 503.608 28.2695 500.339 32.2961 500.339ZM74.2579 500.339C78.2844 500.339 81.5547 503.608 81.5547 507.633C81.5547 511.659 78.2844 514.928 74.2579 514.928C70.2314 514.928 66.9611 511.659 66.9611 507.633C66.9611 503.608 70.2314 500.339 74.2579 500.339ZM116.261 500.339C120.287 500.339 123.557 503.608 123.557 507.633C123.557 511.659 120.287 514.928 116.261 514.928C112.234 514.928 108.964 511.659 108.964 507.633C108.964 503.608 112.234 500.339 116.261 500.339Z" fill="white"/>
</g>
<path d="M-98.2703 349.994C-98.2703 439.796 -25.4451 512.578 64.3651 512.578C154.175 512.578 227 439.776 227 349.994C227 260.212 154.175 187.41 64.3651 187.41C-25.4451 187.41 -98.2703 260.212 -98.2703 349.994Z" fill="url(#paint0_radial_35_8)"/>
<path d="M2.20947 349.994C2.20947 384.321 30.0478 412.13 64.3653 412.13C98.6829 412.13 126.521 384.301 126.521 349.994C126.521 315.687 98.6829 287.858 64.3653 287.858C30.0478 287.858 2.20947 315.687 2.20947 349.994Z" fill="url(#paint1_radial_35_8)"/>
<path d="M-27.9999 385.609L-50.9531 404.08L-40.1408 422.796L-12.6499 412.151C-8.23506 417.606 -3.26829 422.592 2.189 426.985L-8.45992 454.467L10.2625 465.276L28.7396 442.33C35.1984 444.823 41.9842 446.682 49.0358 447.786L53.5529 476.882H75.1777L79.6947 447.786C86.7463 446.682 93.5321 444.843 99.9909 442.33L118.468 465.276L137.19 454.467L126.542 426.985C131.999 422.572 136.986 417.606 141.38 412.151L168.871 422.796L179.684 404.08L156.73 385.609C159.224 379.131 161.084 372.348 162.167 365.319L191.273 360.803V339.185L162.167 334.67C161.064 327.641 159.224 320.857 156.73 314.38L179.684 295.909L168.871 277.192L141.38 287.838C136.966 282.382 131.999 277.417 126.542 273.003L137.19 245.521L118.468 234.712L99.9909 257.658C93.5321 255.166 86.7463 253.306 79.6947 252.223L75.1777 223.106H53.5529L49.0358 252.223C41.9842 253.327 35.2189 255.166 28.7396 257.658L10.2625 234.712L-8.45992 245.521L2.189 273.003C-3.26829 277.417 -8.2555 282.382 -12.6499 287.838L-40.1408 277.192L-50.9531 295.909L-27.9999 314.38C-30.4935 320.837 -32.3534 327.62 -33.4367 334.67L-62.5422 339.185V360.803L-33.4367 365.319C-32.333 372.348 -30.4935 379.131 -27.9999 385.609ZM2.90432 349.994C2.90432 316.055 30.4156 288.553 64.3653 288.553C98.3149 288.553 125.826 316.055 125.826 349.994C125.826 383.933 98.3149 411.436 64.3653 411.436C30.4156 411.436 2.90432 383.933 2.90432 349.994Z" fill="#E0E0E0"/>
<path d="M-124.678 422.878L-171.668 460.679L-149.532 498.99L-93.2625 477.188C-84.2283 488.345 -74.0495 498.54 -62.8693 507.572L-84.6779 563.844L-46.3543 585.952L-8.54163 538.977C4.68259 544.085 18.5813 547.886 32.9909 550.133L42.2295 609.695H86.4806L95.7191 550.133C110.129 547.886 124.028 544.106 137.252 538.977L175.064 585.952L213.388 563.844L191.579 507.572C202.76 498.54 212.938 488.365 221.973 477.188L278.242 498.99L300.357 460.679L253.367 422.878C258.477 409.637 262.279 395.763 264.507 381.358L324.108 372.123V327.886L264.507 318.65C262.279 304.245 258.477 290.351 253.367 277.131L300.357 239.33L278.221 201.018L221.952 222.82C212.918 211.664 202.739 201.468 191.559 192.437L213.368 136.185L175.044 114.056L137.231 161.052C123.987 155.944 110.108 152.143 95.6987 149.916L86.4601 90.3542H42.2091L32.9706 149.916C18.5609 152.143 4.68257 155.944 -8.56209 161.052L-46.3748 114.077L-84.6984 136.185L-62.8897 192.457C-74.0699 201.488 -84.2488 211.664 -93.2829 222.841L-149.552 201.039L-171.688 239.35L-124.698 277.151C-129.808 290.391 -133.61 304.265 -135.837 318.691L-195.418 327.927V372.164L-135.837 381.399C-133.589 395.804 -129.808 409.699 -124.698 422.919L-124.678 422.878ZM-93.2625 349.994C-93.2625 262.971 -22.6856 192.416 64.3653 192.416C151.416 192.416 221.993 262.971 221.993 349.994C221.993 437.017 151.416 507.572 64.3653 507.572C-22.6856 507.572 -93.2625 437.017 -93.2625 349.994Z" fill="#E0E0E0"/>
<path d="M-216.45 349.994C-216.45 195.195 -90.4625 69.2676 64.3651 69.2676C219.193 69.2676 345.18 195.195 345.18 349.994C345.18 504.793 219.213 630.72 64.3651 630.72C-90.4829 630.72 -216.45 504.793 -216.45 349.994ZM-214.672 349.994C-214.672 503.812 -89.5018 628.943 64.3651 628.943C218.232 628.943 343.402 503.812 343.402 349.994C343.402 196.176 218.232 71.0452 64.3651 71.0452C-89.5018 71.0452 -214.672 196.176 -214.672 349.994Z" fill="#E0E0E0"/>
<path d="M64.3651 23.8251C-1.32671 23.8251 -62.5219 43.3384 -113.763 76.8687V72.5982C-62.3584 39.4971 -1.20408 20.2698 64.3651 20.2698C221.4 20.2698 353.131 130.546 386.202 277.682L382.727 278.5C350.025 132.936 219.724 23.8455 64.3856 23.8455L64.3651 23.8251Z" fill="#E0E0E0"/>
<path d="M-211.545 169.532H-207.252C-241.754 221.247 -261.907 283.302 -261.907 349.994C-261.907 529.844 -115.541 676.163 64.3651 676.163C244.272 676.163 375.717 544.269 389.493 377.006L393.233 375.372C380.234 545.373 237.69 679.718 64.3651 679.718C-117.504 679.718 -265.484 531.805 -265.484 349.974C-265.484 283.404 -245.637 221.39 -211.545 169.511V169.532Z" fill="#E0E0E0"/>
<path d="M299.785 106.966L302.319 104.432C349.33 149.977 383.34 208.844 398.2 274.862L394.725 275.68C380.009 210.315 346.345 152.041 299.805 106.966H299.785Z" fill="#E0E0E0"/>
<path d="M402.267 371.448L405.967 369.834C400.244 469.362 351.742 557.612 278.63 616.478L276.096 613.945C348.165 556.059 396.115 469.321 402.267 371.448Z" fill="#E0E0E0"/>
<path d="M-113.763 42.1328C-61.3365 11.6879 -0.488747 -5.76172 64.3651 -5.76172C198.529 -5.76172 315.584 68.8589 376.207 178.747L373.08 180.483C313.07 71.6787 197.18 -2.2064 64.3447 -2.2064C-0.611343 -2.2064 -61.5 15.468 -113.784 46.2398V42.1124L-113.763 42.1328Z" fill="#E0E0E0"/>
<path d="M64.3651 702.195C171.671 702.195 267.899 653.973 332.569 578.086L335.308 580.374C269.984 657.058 172.755 705.77 64.3447 705.77C-67.877 705.77 -183.482 633.295 -244.84 526.023L-241.713 524.266C-180.968 630.455 -66.528 702.195 64.3447 702.195H64.3651Z" fill="#E0E0E0"/>
<path d="M-128.949 126.336C-77.5651 81.8949 -10.7695 54.801 62.2191 54.2698V56.0474C-10.8922 56.5787 -77.7286 83.9178 -128.949 128.706V126.336Z" fill="#E0E0E0"/>
<path d="M-125.086 576.962L-123.819 575.695C-72.7823 618.297 -7.15177 643.961 64.3653 643.961C117.753 643.961 167.87 629.658 211.058 604.689L212.121 606.14C168.626 631.313 118.141 645.739 64.3653 645.739C-7.64231 645.739 -73.7225 619.871 -125.086 576.962Z" fill="#E0E0E0"/>
<path d="M70.6197 31.0378H58.1108V70.1667H70.6197V31.0378Z" fill="#E0E0E0"/>
<path d="M85.9353 31.6746L82.5239 70.6545L94.9852 71.7444L98.3965 32.7645L85.9353 31.6746Z" fill="#E0E0E0"/>
<path d="M113.607 34.7876L106.81 73.322L119.129 75.4935L125.926 36.959L113.607 34.7876Z" fill="#E0E0E0"/>
<path d="M140.877 40.2745L130.746 78.0701L142.829 81.3066L152.959 43.511L140.877 40.2745Z" fill="#E0E0E0"/>
<path d="M167.575 48.1025L154.188 84.8716L165.942 89.1485L179.329 52.3794L167.575 48.1025Z" fill="#E0E0E0"/>
<path d="M193.49 58.2135L176.948 93.6763L188.285 98.9611L204.827 63.4983L193.49 58.2135Z" fill="#E0E0E0"/>
<path d="M218.542 70.7096L198.966 104.593L209.798 110.847L229.374 76.964L218.542 70.7096Z" fill="#E0E0E0"/>
<path d="M242.22 85.0977L219.77 117.15L230.016 124.323L252.467 92.2702L242.22 85.0977Z" fill="#E0E0E0"/>
<path d="M264.659 101.6L239.499 131.574L249.081 139.612L274.241 109.637L264.659 101.6Z" fill="#E0E0E0"/>
<path d="M285.54 119.965L257.863 147.633L266.708 156.476L294.385 128.807L285.54 119.965Z" fill="#E0E0E0"/>
<path d="M304.749 140.074L274.765 165.226L282.805 174.805L312.789 149.653L304.749 140.074Z" fill="#E0E0E0"/>
<path d="M322.163 161.936L290.101 184.379L297.275 194.623L329.338 172.179L322.163 161.936Z" fill="#E0E0E0"/>
<path d="M337.58 185.083L303.683 204.647L309.937 215.477L343.834 195.912L337.58 185.083Z" fill="#E0E0E0"/>
<path d="M350.901 209.475L315.427 226.011L320.713 237.344L356.187 220.808L350.901 209.475Z" fill="#E0E0E0"/>
<path d="M362.062 234.986L325.281 248.369L329.56 260.119L366.34 246.737L362.062 234.986Z" fill="#E0E0E0"/>
<path d="M336.421 416.439L333.181 428.517L370.987 438.651L374.227 426.573L336.421 416.439Z" fill="#E0E0E0"/>
<path d="M329.545 439.822L325.264 451.572L362.043 464.962L366.323 453.212L329.545 439.822Z" fill="#E0E0E0"/>
<path d="M320.767 462.69L315.48 474.023L350.954 490.56L356.241 479.226L320.767 462.69Z" fill="#E0E0E0"/>
<path d="M309.918 484.517L303.662 495.346L337.556 514.916L343.812 504.088L309.918 484.517Z" fill="#E0E0E0"/>
<path d="M297.277 505.426L290.101 515.668L322.16 538.117L329.336 527.875L297.277 505.426Z" fill="#E0E0E0"/>
<path d="M282.815 524.993L274.774 534.572L304.758 559.724L312.799 550.145L282.815 524.993Z" fill="#E0E0E0"/>
<path d="M266.725 543.537L257.878 552.377L285.55 580.051L294.397 571.21L266.725 543.537Z" fill="#E0E0E0"/>
<path d="M249.099 560.359L239.515 568.396L264.67 598.374L274.253 590.338L249.099 560.359Z" fill="#E0E0E0"/>
<path d="M230.065 575.607L219.817 582.777L242.262 614.834L252.51 607.663L230.065 575.607Z" fill="#E0E0E0"/>
<path d="M209.742 589.173L198.909 595.426L218.48 629.312L229.313 623.06L209.742 589.173Z" fill="#E0E0E0"/>
<path d="M371.323 339.45L356.892 351.056L363.678 362.805L380.949 356.124C383.729 359.556 386.856 362.683 390.27 365.441L383.586 382.707L395.339 389.49L406.948 375.085C411.016 376.659 415.267 377.823 419.702 378.498L422.543 396.785H436.115L438.956 378.498C443.371 377.803 447.643 376.638 451.71 375.085L463.32 389.49L475.072 382.707L468.389 365.441C471.822 362.683 474.95 359.556 477.709 356.124L494.98 362.805L501.766 351.056L487.336 339.45C488.91 335.384 490.075 331.134 490.749 326.7L509.042 323.86V310.293L490.749 307.453C490.054 303.039 488.889 298.769 487.336 294.703L501.766 283.097L494.98 271.327L477.709 278.009C474.929 274.576 471.802 271.45 468.389 268.692L475.072 251.426L463.32 244.642L451.71 259.068C447.643 257.494 443.391 256.33 438.956 255.656L436.115 237.368H422.543L419.702 255.656C415.287 256.33 411.016 257.515 406.948 259.068L395.339 244.642L383.586 251.426L390.27 268.692C386.836 271.471 383.709 274.597 380.949 278.009L363.678 271.327L356.892 283.076L371.323 294.682C369.749 298.748 368.584 302.998 367.909 307.432L349.616 310.272V323.84L367.909 326.68C368.604 331.093 369.769 335.364 371.323 339.43V339.45ZM380.949 317.097C380.949 290.391 402.615 268.733 429.329 268.733C456.043 268.733 477.709 290.391 477.709 317.097C477.709 343.803 456.064 365.461 429.329 365.461C402.595 365.461 380.949 343.803 380.949 317.097Z" fill="url(#paint2_linear_35_8)"/>
<path d="M399.938 317.097C399.938 333.341 413.1 346.479 429.329 346.479C445.558 346.479 458.721 333.32 458.721 317.097C458.721 300.873 445.558 287.714 429.329 287.714C413.1 287.714 399.938 300.873 399.938 317.097Z" fill="url(#paint3_linear_35_8)"/>
<path d="M-283.757 215.914C-299.004 256.534 -307.384 300.526 -307.384 346.48C-307.384 551.727 -140.947 718.112 64.3651 718.112C237.608 718.112 383.157 599.642 424.423 439.326L465.936 450.197C419.866 628.943 257.557 761 64.3856 761C-164.616 761 -350.266 575.409 -350.266 346.48C-350.266 295.234 -340.946 246.155 -323.92 200.855L-283.757 215.914Z" fill="#E0E0E0"/>
<path d="M455.164 207.68L414.776 222.146C363.985 79.1162 228.084 -23.5995 67.9419 -25.1115V-68C246.683 -66.488 398.425 48.0788 455.164 207.68Z" fill="#C7C7C7"/>
<path d="M606.251 489.264C606.251 494.699 610.646 499.092 616.083 499.092C621.519 499.092 625.914 494.699 625.914 489.264C625.914 483.829 621.519 479.436 616.083 479.436C610.646 479.436 606.251 483.829 606.251 489.264Z" fill="url(#paint4_radial_35_8)"/>
<path d="M640.794 507.123C640.794 512.558 645.188 516.951 650.625 516.951C656.062 516.951 660.456 512.558 660.456 507.123C660.456 501.687 656.062 497.294 650.625 497.294C645.188 497.294 640.794 501.687 640.794 507.123Z" fill="url(#paint5_radial_35_8)"/>
<path d="M683.103 525.001C683.103 530.436 687.497 534.829 692.934 534.829C698.371 534.829 702.765 530.436 702.765 525.001C702.765 519.566 698.371 515.173 692.934 515.173C687.497 515.173 683.103 519.566 683.103 525.001Z" fill="url(#paint6_radial_35_8)"/>
</g>
</g>
<defs>
<radialGradient id="paint0_radial_35_8" cx="0" cy="0" r="1" gradientUnits="userSpaceOnUse" gradientTransform="translate(64.3651 349.994) rotate(180) scale(162.635 162.584)">
<stop stop-color="white" stop-opacity="0"/>
<stop offset="0.38" stop-color="white" stop-opacity="0"/>
<stop offset="0.47" stop-color="#FDFDFD" stop-opacity="0.01"/>
<stop offset="0.56" stop-color="#F9F9F9" stop-opacity="0.01"/>
<stop offset="0.65" stop-color="#F2F2F2" stop-opacity="0.0361"/>
<stop offset="0.74" stop-color="#E8E8E8" stop-opacity="0.1156"/>
<stop offset="0.83" stop-color="#DCDCDC" stop-opacity="0.2809"/>
<stop offset="0.92" stop-color="#CCCCCC" stop-opacity="0.5776"/>
<stop offset="1" stop-color="#BDBDBD"/>
</radialGradient>
<radialGradient id="paint1_radial_35_8" cx="0" cy="0" r="1" gradientUnits="userSpaceOnUse" gradientTransform="translate(1424.6 349.994) rotate(180) scale(62.1559 62.1362)">
<stop stop-color="white" stop-opacity="0"/>
<stop offset="0.38" stop-color="white" stop-opacity="0"/>
<stop offset="0.47" stop-color="#FDFDFD" stop-opacity="0.01"/>
<stop offset="0.56" stop-color="#F9F9F9" stop-opacity="0.01"/>
<stop offset="0.65" stop-color="#F2F2F2" stop-opacity="0.0361"/>
<stop offset="0.74" stop-color="#E8E8E8" stop-opacity="0.1156"/>
<stop offset="0.83" stop-color="#DCDCDC" stop-opacity="0.2809"/>
<stop offset="0.92" stop-color="#CCCCCC" stop-opacity="0.5776"/>
<stop offset="1" stop-color="#BDBDBD"/>
</radialGradient>
<linearGradient id="paint2_linear_35_8" x1="509.042" y1="317.097" x2="349.596" y2="317.097" gradientUnits="userSpaceOnUse">
<stop stop-color="#C7C7C7" stop-opacity="0.88"/>
<stop offset="0.27" stop-color="#CACACA" stop-opacity="0.81"/>
<stop offset="0.68" stop-color="#D5D5D5" stop-opacity="0.9025"/>
<stop offset="1" stop-color="#E0E0E0"/>
</linearGradient>
<linearGradient id="paint3_linear_35_8" x1="458.721" y1="317.097" x2="399.917" y2="317.097" gradientUnits="userSpaceOnUse">
<stop stop-color="#C7C7C7" stop-opacity="0.88"/>
<stop offset="0.27" stop-color="#CACACA" stop-opacity="0.81"/>
<stop offset="0.68" stop-color="#D5D5D5" stop-opacity="0.9025"/>
<stop offset="1" stop-color="#E0E0E0"/>
</linearGradient>
<radialGradient id="paint4_radial_35_8" cx="0" cy="0" r="1" gradientUnits="userSpaceOnUse" gradientTransform="translate(616.083 489.264) scale(9.83129 9.82818)">
<stop stop-color="#C7C7C7" stop-opacity="0.88"/>
<stop offset="0.14" stop-color="#C8C8C8" stop-opacity="0.7225"/>
<stop offset="0.34" stop-color="#CCCCCC" stop-opacity="0.5476"/>
<stop offset="0.59" stop-color="#D2D2D2" stop-opacity="0.3249"/>
<stop offset="0.87" stop-color="#DBDBDB" stop-opacity="0.1089"/>
<stop offset="1" stop-color="#E0E0E0" stop-opacity="0.2"/>
</radialGradient>
<radialGradient id="paint5_radial_35_8" cx="0" cy="0" r="1" gradientUnits="userSpaceOnUse" gradientTransform="translate(650.625 507.123) rotate(180) scale(9.83129 9.82818)">
<stop stop-color="#C7C7C7" stop-opacity="0.88"/>
<stop offset="0.14" stop-color="#C8C8C8" stop-opacity="0.7225"/>
<stop offset="0.34" stop-color="#CCCCCC" stop-opacity="0.5476"/>
<stop offset="0.59" stop-color="#D2D2D2" stop-opacity="0.3249"/>
<stop offset="0.87" stop-color="#DBDBDB" stop-opacity="0.1089"/>
<stop offset="1" stop-color="#E0E0E0" stop-opacity="0.2"/>
</radialGradient>
<radialGradient id="paint6_radial_35_8" cx="0" cy="0" r="1" gradientUnits="userSpaceOnUse" gradientTransform="translate(692.934 525.001) rotate(180) scale(9.83129 9.82818)">
<stop stop-color="#C7C7C7" stop-opacity="0.88"/>
<stop offset="0.14" stop-color="#C8C8C8" stop-opacity="0.7225"/>
<stop offset="0.34" stop-color="#CCCCCC" stop-opacity="0.5476"/>
<stop offset="0.59" stop-color="#D2D2D2" stop-opacity="0.3249"/>
<stop offset="0.87" stop-color="#DBDBDB" stop-opacity="0.1089"/>
<stop offset="1" stop-color="#E0E0E0" stop-opacity="0.2"/>
</radialGradient>
<clipPath id="clip0_35_8">
<rect width="720" height="603" fill="white" transform="translate(0 1)"/>
</clipPath>
</defs>
</svg>
